<svg width="27" height="27" viewBox="0 0 27 27" fill="none" xmlns="http://www.w3.org/2000/svg">
<path d="M19.5 0C21.4891 0 23.3967 0.790176 24.8033 2.1967C26.2098 3.60322 27 5.51088 27 7.5V19.5C27 21.4891 26.2098 23.3967 24.8033 24.8033C23.3967 26.2098 21.4891 27 19.5 27H7.5C5.51088 27 3.60322 26.2098 2.1967 24.8033C0.790176 23.3967 0 21.4891 0 19.5V7.5C0 5.51088 0.790176 3.60322 2.1967 2.1967C3.60322 0.790176 5.51088 0 7.5 0H19.5ZM13.5 7.5C11.9087 7.5 10.3826 8.13214 9.25735 9.25735C8.13214 10.3826 7.5 11.9087 7.5 13.5C7.5 15.0913 8.13214 16.6174 9.25735 17.7426C10.3826 18.8678 11.9087 19.5 13.5 19.5C15.0913 19.5 16.6174 18.8678 17.7426 17.7426C18.8678 16.6174 19.5 15.0913 19.5 13.5C19.5 11.9087 18.8678 10.3826 17.7426 9.25735C16.6174 8.13214 15.0913 7.5 13.5 7.5ZM13.5 10.5C14.2956 10.5 15.0587 10.8161 15.6213 11.3787C16.1839 11.9413 16.5 12.7044 16.5 13.5C16.5 14.2956 16.1839 15.0587 15.6213 15.6213C15.0587 16.1839 14.2956 16.5 13.5 16.5C12.7044 16.5 11.9413 16.1839 11.3787 15.6213C10.8161 15.0587 10.5 14.2956 10.5 13.5C10.5 12.7044 10.8161 11.9413 11.3787 11.3787C11.9413 10.8161 12.7044 10.5 13.5 10.5ZM20.25 5.25C19.8522 5.25 19.4706 5.40803 19.1894 5.68934C18.908 5.97064 18.75 6.35218 18.75 6.75C18.75 7.14782 18.908 7.52936 19.1894 7.81066C19.4706 8.09197 19.8522 8.25 20.25 8.25C20.6478 8.25 21.0294 8.09197 21.3106 7.81066C21.592 7.52936 21.75 7.14782 21.75 6.75C21.75 6.35218 21.592 5.97064 21.3106 5.68934C21.0294 5.40803 20.6478 5.25 20.25 5.25Z" fill="white"/>
</svg>
