<svg width="25" height="29" viewBox="0 0 25 29" fill="none" xmlns="http://www.w3.org/2000/svg">
<g clip-path="url(#clip0_187_516)">
<mask id="mask0_187_516" style="mask-type:luminance" maskUnits="userSpaceOnUse" x="0" y="0" width="25" height="29">
<path d="M24.9689 0H0V28.5359H24.9689V0Z" fill="white"/>
</mask>
<g mask="url(#mask0_187_516)">
<mask id="mask1_187_516" style="mask-type:luminance" maskUnits="userSpaceOnUse" x="0" y="0" width="25" height="29">
<path d="M0 0H24.9689V28.5359H0V0Z" fill="white"/>
</mask>
<g mask="url(#mask1_187_516)">
<path d="M23.1855 1.78369H1.77792C0.797 1.78369 0 2.59185 0 3.58392V24.9524C0 25.9445 0.797 26.7526 1.77792 26.7526H23.1855C24.1664 26.7526 24.9689 25.9445 24.9689 24.9524V3.58392C24.9689 2.59185 24.1664 1.78369 23.1855 1.78369ZM7.54642 23.1856H3.84566V11.2697H7.552V23.1856H7.54642ZM5.69604 9.64222C4.50889 9.64222 3.55028 8.67801 3.55028 7.49644C3.55028 6.3149 4.50889 5.35068 5.69604 5.35068C6.87761 5.35068 7.8418 6.3149 7.8418 7.49644C7.8418 8.68359 6.88319 9.64222 5.69604 9.64222ZM21.4187 23.1856H17.7179V17.3893C17.7179 16.0071 17.6901 14.2292 15.7951 14.2292C13.8667 14.2292 13.5713 15.734 13.5713 17.289V23.1856H9.87055V11.2697H13.4208V12.8971H13.471C13.967 11.9608 15.1764 10.9743 16.9767 10.9743C20.7219 10.9743 21.4187 13.4433 21.4187 16.6536V23.1856Z" fill="white"/>
</g>
</g>
</g>
<defs>
<clipPath id="clip0_187_516">
<rect width="24.9689" height="28.5359" fill="white"/>
</clipPath>
</defs>
</svg>
