<svg width="50" height="52" viewBox="0 0 50 52" fill="none" xmlns="http://www.w3.org/2000/svg">
<path d="M41 30.8857C34.5916 30.5505 30.8438 31.6838 25.5 35.386C24.635 33.8499 23.9475 33.3686 22.5 32.886M13 21.8843H15M13 24.8843H16.5M13 27.3843H15M13.5 30.3843H11.5M38 18.8843H36.5M38 21.8843H36.5M38 24.8843H35M38 27.8857H33M12 10.3857C19.6801 11.1445 27.5 12.8857 29 14.8857C30.5 16.8857 30.0434 20.552 27 23.3857C24.8059 24.412 23.4869 24.3603 21 23.3857C15.9466 21.1904 14.2524 17.8187 12 10.3857Z" stroke="#3E3F42"/>
<path d="M38 8.38574C35.5 8.88458 33.5 4.38574 30.5 4.38574C27.5 4.38574 25.6004 6.25859 23.5 11.8857" stroke="#3E3F42" stroke-linecap="round" stroke-linejoin="round"/>
<path d="M18.5 34.8843C16.275 34.535 14.7945 34.5924 12 34.8843C15.469 30.5442 17.1832 28.0526 19.5 23.3857M18.5 34.8843L19.5076 32.886M18.5 34.8843C18.3654 34.8634 18.8718 33.9634 19.5076 32.886M19.5076 32.886C20.3032 31.5379 21.3014 29.9122 21.5 29.3843C21.8572 28.4345 24.4387 29.8158 27 28.8843C29.5613 27.9528 34.3084 26.3843 35 21.3843C35.6916 16.3843 33.6311 12.1671 34.5 10.8843C35.0552 9.30671 35.8974 8.44852 38 8.38574" stroke="#3E3F42" stroke-linecap="round"/>
<path d="M40.5 30.8843V16.8843M11 30.8843V16.8843" stroke="#3E3F42"/>
<circle cx="31.3501" cy="8.13428" r="0.75" fill="#3E3F42"/>
<path d="M38.0015 0.0813584C38.0015 -0.127064 38.0015 0.0957899 38.0015 0.40167C38.0015 0.496538 38.0015 0.920604 38.0015 1.00518C38.0015 1.17007 38.0015 0.962087 38.0015 1.1585C38.0015 1.22567 38.0015 1.89739 38.0015 1.95245C38.0015 2.24931 38.0015 2.07821 38.0015 2.221C38.0016 2.92548 38.0016 3.17764 38.0016 3.48369C38.0017 3.58403 38.0017 4.19364 38.0017 3.92705C38.0017 3.89533 38.0017 3.30572 38.0017 3.25713C38.0017 2.5132 38.0017 3.70348 38.0017 3.86162C38.0017 4.48603 38.0017 4.54034 38.0017 4.31279C38.0017 4.21426 38.0017 3.04316 38.0017 3.70049C38.0017 3.7449 38.0017 4.37101 38.0017 4.43779C38.0017 4.58798 38.0017 4.47607 38.0017 4.52568C38.0017 4.62445 38.0017 4.61816 38.0017 4.62529C38.0017 4.64049 38.0018 4.95173 38.0018 4.80986C38.0018 4.77772 38.0018 4.13588 38.0018 4.02666C38.0018 3.91761 38.0018 3.97204 38.0018 4.12334C38.0018 4.27472 38.0018 4.77919 38.0018 4.89482C38.0018 5.87079 38.0018 4.51907 38.0018 4.48564C38.0018 3.91605 38.0018 4.68608 38.0018 4.68388C38.0018 4.68058 38.0018 4.42637 38.0018 4.46123C38.0019 4.50524 38.0019 4.85305 38.0019 4.79326C38.0019 4.78769 38.0019 4.03304 38.0019 4.02471C38.0019 3.93689 38.0019 4.01915 38.0019 4.52861C38.0019 4.58037 38.0019 5.24295 38.0019 5.33427C38.0019 5.87879 38.0019 7.18686 38.0019 4.30205C38.002 4.4147 38.002 4.53108 38.002 5.11259C38.002 5.48686 38.002 6.20867 38.002 5.90068C38.002 5.83205 38.002 5.19992 38.002 5.14482C38.002 4.91341 38.002 5.11889 38.002 4.79228C38.002 4.72436 38.002 4.15795 38.002 4.05596C38.002 3.22993 38.002 4.5954 38.002 4.69463C38.002 5.43452 38.002 5.14336 38.002 5.16142C38.002 5.16593 38.002 4.40511 38.002 4.38213C38.002 4.27309 38.002 4.33848 38.002 4.67607C38.0021 4.75299 38.002 5.40107 38.002 5.47099C38.0021 5.77139 38.0021 4.54734 38.0021 4.81181C38.0021 4.866 38.0021 5.4208 38.0021 5.48173C38.0021 6.43822 38.0021 5.08294 38.0021 5.05302C38.0021 4.64418 38.0021 6.05902 38.0021 5.85868C38.0021 5.83329 38.0021 5.13129 38.0021 5.10283C38.0021 4.90904 38.0021 5.10188 38.0021 5.66337C38.0021 5.74973 38.0021 6.27707 38.0021 6.34208C38.0021 7.35782 38.0021 5.99685 38.0021 5.9456C38.0021 5.57665 38.0022 6.71799 38.0022 5.09697C38.0022 5.65951 38.0022 4.74923 38.0022 6.20146C38.0022 6.21828 38.0022 6.88856 38.0022 6.91923C38.0022 7.29558 38.0022 6.25385 38.0022 4.97978C38.0023 4.65986 38.0023 6.19808 38.0023 6.31083C38.0023 6.72633 38.0023 7.72352 38.0023 7.80399C38.0023 8.43586 38.0023 5.13807 38.0023 5.13701C38.0023 5.1425 38.0023 5.7495 38.0023 5.80986C38.0023 5.99934 38.0023 5.75814 38.0023 5.96708C38.0023 6.45057 38.0023 8.05301 38.0023 7.1204C38.0023 6.99936 38.0023 5.12872 38.0023 5.21708C38.0023 5.2539 38.0023 5.22184 38.0023 5.34306C38.0023 5.46414 38.0023 6.06695 38.0023 6.09306C38.0023 6.89017 38.0023 7.22054 38.0023 8.40067C38.0023 9.57634 38.0023 6.77225 38.0023 6.45927C38.0023 6.14718 38.0023 6.80485 38.0023 7.03348C38.0023 7.26221 38.0023 7.64526 38.0023 7.77469C38.0023 8.62036 38.0023 6.38284 38.0023 5.93779C38.0023 4.88398 38.0023 6.9635 38.0023 7.16727C38.0023 7.2223 38.0023 6.74868 38.0023 6.70438C38.0023 6.53523 38.0023 7.1841 38.0023 6.58915C38.0023 6.4922 38.0023 5.24193 38.0023 6.15946C38.0023 6.29177 38.0023 6.80998 38.0023 6.92606C38.0024 7.10027 38.0024 7.21354 38.0024 7.04032C38.0024 6.91216 38.0024 6.05827 38.0024 6.32353C38.0024 6.44197 38.0024 6.9415 38.0024 7.12235C38.0024 7.30315 38.0024 7.2812 38.0024 7.26395C38.0024 7.24632 38.0024 6.59861 38.0024 6.55497C38.0024 6.30501 38.0024 5.99268 38.0024 5.99345C38.0024 5.91438 38.0024 7.00618 38.0024 6.64481C38.0024 6.61739 38.0024 5.93436 38.0024 5.92314C38.0024 5.63696 38.0024 7.45298 38.0024 8.06083C38.0024 6.67476 38.0024 6.92573 38.0024 6.77372C38.0024 6.69934 38.0024 6.16265 38.0024 6.10771C38.0024 5.29253 38.0025 6.34544 38.0025 6.56083C38.0025 7.35316 38.0025 6.41697 38.0025 6.94657C38.0025 7.47222 38.0025 8.25147 38.0025 8.24149C38.0025 7.74532 38.0025 6.44871 38.0025 6.23857C38.0025 5.44369 38.0025 6.46101 38.0025 6.56669C38.0025 6.67228 38.0025 6.58073 38.0025 6.76005C38.0025 7.08427 38.0025 6.12226 38.0025 5.68193C38.0025 5.24164 38.0025 7.60863 38.0025 8.11747C38.0025 8.62607 38.0025 8.10252 38.0025 8.38211C38.0025 8.66165 38.0025 9.00762 38.0025 9.11258C38.0025 9.21744 38.0025 8.3126 38.0025 7.78055C38.0025 6.65337 38.0025 5.47035 38.0025 5.88603C38.0025 5.9107 38.0025 6.53308 38.0025 6.59599C38.0025 7.07513 38.0026 7.10483 38.0026 7.5286C38.0026 7.58784 38.0026 8.28023 38.0026 8.32254C38.0026 8.76541 38.0026 7.59796 38.0026 6.30107C38.0026 8.02695 38.0026 9.08286 38.0026 9.09305C38.0026 9.09978 38.0026 8.346 38.0026 7.81473C38.0026 7.65458 38.0026 8.17215 38.0026 7.81766C38.0026 6.65888 38.0026 5.36169 38.0026 5.87822C38.0026 5.90276 38.0026 6.53706 38.0026 6.57548C38.0026 6.82692 38.0026 5.61485 38.0026 5.46806C38.0026 5.35288 38.0026 6.09199 38.0026 6.2122C38.0026 8.1526 38.0026 7.70827 38.0026 6.3704C38.0026 6.42517 38.0026 6.34954 38.0027 6.53446C38.0027 6.59751 38.0027 7.15931 38.0027 7.22001C38.0027 8.17225 38.0027 6.87065 38.0027 6.81962C38.0027 6.32359 38.0027 7.31009 38.0027 6.34599C38.0027 6.31126 38.0027 4.9634 38.0027 5.94755C38.0027 6.01539 38.0027 6.62864 38.0027 6.67606C38.0027 6.72359 38.0027 7.44614 38.0027 6.82157C38.0027 6.67121 38.0027 5.57702 38.0027 6.43192C38.0027 6.54801 38.0027 6.93458 38.0027 7.1497C38.0027 7.83513 38.0027 6.47278 38.0027 7.63016C38.0027 8.7875 38.0027 9.65426 38.0027 8.85574C38.0027 8.83253 38.0027 7.75274 38.0027 7.76981C38.0027 7.79799 38.0027 8.02294 38.0027 8.0159C38.0027 8.01215 38.0027 7.34165 38.0027 7.32938C38.0028 6.95366 38.0028 7.5514 38.0028 7.81083C38.0028 7.85971 38.0028 6.94538 38.0028 7.66825C38.0028 8.45956 38.0028 11.7513 38.0028 10.9671C38.0028 10.6534 38.0028 6.47722 38.0028 8.6409C38.0028 8.10476 38.0028 9.21212 38.0028 8.44657C38.0028 8.41265 38.0028 7.24711 38.0028 7.26298C38.0028 7.28878 38.0028 7.83353 38.0028 7.86942C38.0029 8.03351 38.0029 7.56743 38.0029 7.63993C38.0029 7.66627 38.0029 8.22954 38.0029 8.26102C38.0029 8.29198 38.0029 7.55026 38.0029 7.90848C38.0029 8.18153 38.0029 9.69758 38.0029 9.8743C38.0029 8.37888 38.0029 8.40968 38.0029 8.01493C38.0029 7.93834 38.0029 7.41785 38.0029 7.35477C38.0029 7.08651 38.0029 7.51788 38.0029 7.22587C38.0029 7.15573 38.0029 6.64504 38.0029 6.55888C38.0029 5.80678 38.0029 6.95554 38.0029 7.15555C38.0029 7.91517 38.0029 7.25095 38.0029 7.55008C38.0029 7.84918 38.0029 8.22307 38.0029 8.40457C38.0029 8.77999 38.0029 8.69751 38.0029 8.72098C38.0029 8.72719 38.0029 8.04549 38.0029 8.03055C38.0029 7.85765 38.0029 8.58279 38.0029 7.22489C38.0029 10.7359 38.0029 6.88434 38.003 7.58719C38.003 7.64404 38.003 9.30437 38.003 9.54813C38.0029 9.79165 38.0029 9.27265 38.0029 9.65262C38.0029 9.74179 38.0029 11.2976 38.0029 11.3919C38.0029 12.1284 38.0029 9.64729 38.0029 9.51102C38.0029 8.04037 38.0029 9.71649 38.0029 9.8323C38.0029 10.363 38.0029 10.0141 38.0029 10.3928C38.0029 10.6377 38.0029 12.2629 38.0029 12.2132C38.0029 12.0487 38.0029 9.78151 38.0029 11.7473C38.0029 12.1666 38.0029 13.9429 38.0029 12.5462C38.0029 12.4581 38.0029 11.1803 38.0029 11.9885C38.0029 12.0905 38.0029 12.6081 38.0029 12.6516C38.0029 12.9329 38.0029 12.5205 38.0029 12.718C38.0029 12.9156 38.0029 13.21 38.0029 13.0344C38.0029 12.9294 38.0029 11.9649 38.0029 11.7288C38.0029 11.0485 38.0029 12.1639 38.0028 11.3401C38.0028 10.5122 38.0029 9.25493 38.0028 8.72C38.0028 10.065 38.0028 11.4455 38.0028 12.7981C38.0028 12.7508 38.0028 12.3158 38.0028 12.3753C38.0028 12.384 38.0028 13.107 38.0028 13.135C38.0028 13.2499 38.0028 12.7344 38.0028 12.9397C38.0028 13.1014 38.0028 13.867 38.0028 14.0598C38.0028 12.5208 38.0028 13.0433 38.0028 12.9026C38.0028 12.854 38.0028 12.443 38.0028 12.3089C38.0028 11.8129 38.0028 13.1729 38.0028 13.387C38.0028 14.3004 38.0028 11.2221 38.0028 11.2981C38.0028 11.3011 38.0028 12.942 38.0028 13.0442C38.0027 13.7105 38.0028 12.4731 38.0027 12.3518C38.0027 12.1303 38.0027 11.7384 38.0027 12.219C38.0027 12.3614 38.0027 13.3841 38.0027 12.593C38.0027 12.4894 38.0027 11.9471 38.0027 11.9153C38.0027 11.3858 38.0027 13.0901 38.0027 13.6673C38.0027 14.2443 38.0027 13.0679 38.0027 12.7288C38.0027 11.8516 38.0027 12.3539 38.0027 12.2678C38.0027 11.2435 38.0027 11.4198 38.0027 11.3333C38.0027 9.66225 38.0027 9.76255 38.0027 11.2503C38.0027 11.4128 38.0027 11.2569 38.0027 11.3333C38.0027 12.9728 38.0027 13.1827 38.0027 11.6507C38.0027 10.9326 38.0027 10.0954 38.0027 10.4016C38.0027 10.5399 38.0027 11.6905 38.0027 12.0042C38.0027 12.7199 38.0027 11.6466 38.0027 11.8157C38.0027 11.8771 38.0027 12.5069 38.0027 12.5706C38.0027 12.7415 38.0027 12.2689 38.0027 12.511C38.0027 12.5337 38.0027 13.193 38.0027 13.2014C38.0026 13.278 38.0026 12.8557 38.0026 12.844C38.0026 12.8387 38.0026 13.2023 38.0026 13.1292C38.0026 13.0064 38.0026 12.0476 38.0026 12.2805C38.0026 12.4296 38.0026 13.0891 38.0026 13.5383C38.0026 14.4093 38.0026 12.8492 38.0026 12.6077C38.0026 12.5997 38.0026 12.4442 38.0026 12.1057C38.0026 11.4004 38.0026 12.6046 38.0026 12.6077C38.0026 12.4516 38.0026 12.3019 38.0026 12.428C38.0026 12.4969 38.0026 13.1217 38.0026 13.1458C38.0026 13.7049 38.0025 13.8637 38.0025 13.5715C38.0025 13.5589 38.0025 12.8601 38.0025 12.8391C38.0025 12.5284 38.0025 13.3833 38.0025 13.8909C38.0025 14.3982 38.0025 14.2283 38.0025 13.0286C38.0025 13.1796 38.0025 12.6492 38.0025 12.3274C38.0025 12.0056 38.0025 13.3659 38.0025 13.3928C38.0025 14.2536 38.0025 13.475 38.0025 13.3538C38.0025 13.2938 38.0025 13.4912 38.0024 13.6399C38.0024 13.7597 38.0024 13.4409 38.0024 13.6448C38.0024 13.672 38.0024 14.2777 38.0024 14.301C38.0024 15.0257 38.0024 13.545 38.0024 13.2805C38.0024 12.3188 38.0024 11.8066 38.0024 12.2591C38.0024 12.3627 38.0024 14.4947 38.0024 14.6194C38.0024 14.7776 38.0024 14.0134 38.0024 14.1985C38.0024 14.2136 38.0024 14.6851 38.0024 14.6643C38.0024 14.574 38.0024 14.2997 38.0024 14.3469C38.0024 14.3516 38.0024 15.0994 38.0024 15.1184C38.0024 15.2071 38.0024 15.1794 38.0024 14.8294C38.0024 14.7408 38.0024 14.2172 38.0024 14.0618C38.0024 13.1211 38.0024 14.4879 38.0024 14.5139C38.0023 15.1707 38.0023 13.9338 38.0023 14.5227C38.0023 14.5573 38.0023 16.0225 38.0023 14.7659C38.0023 14.6823 38.0023 13.3966 38.0023 14.2756C38.0023 14.3306 38.0023 14.9925 38.0023 14.9251C38.0023 14.8577 38.0023 15.2997 38.0023 14.5725C38.0023 14.3434 38.0023 13.0609 38.0023 14.0833C38.0023 14.1546 38.0023 16.4662 38.0023 14.8714C38.0023 14.6088 38.0023 12.9211 38.0023 13.7864C38.0023 13.9542 38.0023 14.3306 38.0023 14.5657C38.0023 14.928 38.0023 14.4759 38.0023 15.2278C38.0023 15.3609 38.0023 16.5064 38.0023 15.637C38.0023 15.5008 38.0023 14.9373 38.0023 14.8743C38.0023 14.5718 38.0022 14.9487 38.0022 14.5589C38.0022 14.4219 38.0022 13.511 38.0022 13.2669C38.0022 13.0228 38.0022 12.7881 38.0022 13.2044C38.0022 13.6208 38.0022 15.0726 38.0022 15.1887C38.0022 15.6933 38.0022 14.8416 38.0022 14.7171C38.0022 14.6984 38.0022 15.2179 38.0022 15.2278C38.0022 15.2664 38.0021 15.7535 38.0021 14.6497C38.0021 13.7656 38.0021 13.0925 38.0021 12.7327C38.0021 12.5611 38.0021 14.2489 38.0021 14.302C38.0021 14.8418 38.0021 14.0941 38.0021 14.3235C38.0021 14.3711 38.0021 15.0552 38.0021 15.0881C38.0021 15.2068 38.0021 14.9014 38.0021 14.9573C38.0021 14.9839 38.0021 15.5064 38.0021 15.4661C38.0021 15.3756 38.0021 15.156 38.0021 14.6663C38.0021 14.6216 38.0021 13.9717 38.0021 13.9475C38.0021 13.9102 38.0021 13.4272 38.0021 13.926C38.0021 14.0761 38.0021 15.2702 38.002 14.4456C38.002 14.2733 38.002 12.8394 38.002 14.0784C38.002 14.2843 38.002 15.9554 38.002 14.8782C38.002 14.5947 38.002 13.4213 38.002 13.6057C38.002 13.6352 38.002 14.2766 38.002 14.3391C38.002 14.5485 38.002 14.48 38.002 14.6809C38.002 14.7358 38.002 15.3996 38.002 15.4602C38.002 15.628 38.002 15.459 38.002 15.2512C38.002 15.1734 38.002 14.6236 38.002 14.5637C38.002 13.5905 38.002 14.9041 38.002 14.9807C38.002 15.4394 38.002 14.8223 38.002 14.9856C38.002 15.029 38.002 15.6553 38.002 15.7112C38.002 16.2569 38.002 15.1321 38.002 15.0081C38.002 14.657 38.002 14.7073 38.002 14.7874C38.0019 14.8177 38.002 15.5439 38.0019 15.5628C38.0019 15.6879 38.0019 15.6184 38.0019 15.218C38.0019 15.1413 38.0019 14.5821 38.0019 14.4544C38.0019 13.5607 38.0019 14.7797 38.0019 14.8958C38.0019 15.4259 38.0019 14.9314 38.0019 15.0237C38.0019 15.4833 38.0019 15.1557 38.0018 14.9534C38.0018 14.693 38.0018 14.1609 38.0018 14.2991C38.0018 14.3072 38.0018 15.0511 38.0018 15.0676C38.0018 15.247 38.0018 14.9563 38.0017 15.1712C38.0017 15.1875 38.0017 15.8927 38.0017 15.9426C38.0017 16.0499 38.0017 16.0116 38.0017 15.7864C38.0017 15.6779 38.0017 15.0727 38.0017 14.9758C38.0017 14.7489 38.0017 14.6987 38.0017 14.8118C38.0017 14.8614 38.0017 15.5828 38.0017 15.5911C38.0017 15.6626 38.0017 15.7869 38.0017 14.8528C38.0017 14.7886 38.0017 13.3226 38.0017 13.6038C38.0017 14.0106 38.0017 14.4892 38.0017 14.9241C38.0016 15.1583 38.0016 14.6501 38.0016 14.5715C38.0016 14.5684 38.0016 15.3452 38.0016 15.343C38.0016 15.3315 38.0016 15.5467 38.0015 14.7747C38.0015 14.6992 38.0015 13.3327 38.0015 13.5393C38.0015 13.577 38.0015 13.7593 38.0015 14.0559C38.0015 14.1007 38.0015 14.7385 38.0015 14.7571C38.0015 14.854 38.0015 14.7083 38.0015 14.3186C38.0015 14.2545 38.0015 13.5753 38.0015 13.5237C38.0015 13.1631 38.0015 13.6795 38.0015 13.0628C38.0015 12.6475 38.0015 11.4734 38.0015 10.3177C38.0015 10.1546 38.0015 10.1288 38.0015 9.45633C38.0015 7.76545 38.0015 5.91394 38.0015 4.11162C38.0015 3.72341 38.0015 4.14154 38.0015 3.20342C38.0015 3.14063 38.0015 2.82928 38.0015 2.51104C38.0015 2.29101 38.0015 1.60715 38.0015 1.3255C38.0015 1.0441 38.0015 1.61735 38.0015 1.28643C38.0015 0.951418 38.0015 0.17345 38.0015 0.0813584ZM38.0025 10.8889C38.0025 10.2356 38.0025 12.6284 38.0025 12.0559C38.0025 12.0254 38.0025 10.921 38.0025 10.8889ZM38.0028 10.511C38.0028 9.45564 38.0028 11.0075 38.0028 11.8225C38.0028 12.6367 38.0028 10.8309 38.0028 10.511ZM38.0029 9.74051C38.0029 8.90839 38.0029 12.3014 38.0029 11.6155C38.0029 11.5767 38.0029 9.78882 38.0029 9.74051ZM38.0015 9.98855C38.0015 9.95678 38.0015 9.92581 38.0015 9.9573C38.0015 10.7172 38.0015 10.7786 38.0015 9.98855ZM38.0029 8.90164C38.0029 8.44266 38.0029 8.9725 38.0029 9.54324C38.0029 10.0024 38.0029 9.47259 38.0029 8.90164ZM38.0023 8.33524C38.0023 8.29958 38.0023 8.26748 38.0023 8.46903C38.0023 9.11818 38.0023 8.93497 38.0023 8.33524ZM38.003 8.86258C38.003 8.73486 38.003 5.93206 38.003 6.24833C38.003 6.30555 38.003 7.14212 38.003 7.39481C38.003 7.85517 38.003 6.09535 38.003 7.03837C38.003 7.21097 38.003 8.87609 38.003 8.86649C38.003 8.86518 38.003 8.86388 38.003 8.86258ZM38.0025 8.01493C38.0025 7.98329 38.0025 7.95329 38.0025 7.98465C38.0025 8.74429 38.0025 8.80517 38.0025 8.01493ZM38.0022 6.85575C38.0022 6.78833 38.0022 6.72527 38.0022 6.78739C38.0022 8.02959 38.0022 8.16076 38.0022 6.85575ZM38.0026 6.26396C38.0026 5.49976 38.0026 5.40978 38.0026 6.36942C38.0026 6.31848 38.0026 6.31098 38.0026 6.26396Z" fill="#3E3F42"/>
<path d="M1.095 39.6107H0.735C0.495 39.6107 0.375 39.4807 0.375 39.2207C0.375 38.9507 0.495 38.8157 0.735 38.8157H2.49C4.46 38.8157 5.445 39.3607 5.445 40.4507C5.445 40.7907 5.365 41.0857 5.205 41.3357C5.045 41.5857 4.825 41.7457 4.545 41.8157C5.065 41.9357 5.5 42.2957 5.85 42.8957C6.21 43.4957 6.39 44.1657 6.39 44.9057C6.39 45.9057 6.095 46.7357 5.505 47.3957C4.925 48.0557 3.995 48.3857 2.715 48.3857H0.735C0.635 48.3857 0.55 48.3507 0.48 48.2807C0.41 48.2007 0.375 48.1057 0.375 47.9957C0.375 47.7357 0.495 47.6057 0.735 47.6057H1.095V39.6107ZM1.95 41.4707H3.045C3.565 41.4707 3.965 41.4057 4.245 41.2757C4.535 41.1357 4.68 40.8857 4.68 40.5257C4.68 39.8257 4.035 39.4757 2.745 39.4757C2.215 39.4757 1.95 39.5157 1.95 39.5957V41.4707ZM1.95 42.2057V47.5907C1.95 47.6707 2.19 47.7107 2.67 47.7107C3.64 47.7107 4.36 47.4757 4.83 47.0057C5.3 46.5357 5.535 45.8357 5.535 44.9057C5.535 43.9757 5.295 43.2957 4.815 42.8657C4.345 42.4257 3.74 42.2057 3 42.2057H1.95ZM6.84609 44.7707C6.84609 43.6907 7.15109 42.8057 7.76109 42.1157C8.38109 41.4157 9.21109 41.0657 10.2511 41.0657C11.3011 41.0657 12.1311 41.4107 12.7411 42.1007C13.3611 42.7907 13.6711 43.6757 13.6711 44.7557C13.6711 45.8257 13.3661 46.7157 12.7561 47.4257C12.1461 48.1257 11.3061 48.4757 10.2361 48.4757C9.17609 48.4757 8.34609 48.1257 7.74609 47.4257C7.14609 46.7257 6.84609 45.8407 6.84609 44.7707ZM8.42109 46.9007C8.91109 47.4807 9.52109 47.7707 10.2511 47.7707C10.9811 47.7707 11.5911 47.4857 12.0811 46.9157C12.5811 46.3357 12.8311 45.6207 12.8311 44.7707C12.8311 43.9207 12.5811 43.2107 12.0811 42.6407C11.5811 42.0607 10.9711 41.7707 10.2511 41.7707C9.53109 41.7707 8.92109 42.0557 8.42109 42.6257C7.93109 43.1957 7.68609 43.9057 7.68609 44.7557C7.68609 45.6057 7.93109 46.3207 8.42109 46.9007ZM14.1264 44.7707C14.1264 43.6907 14.4314 42.8057 15.0414 42.1157C15.6614 41.4157 16.4914 41.0657 17.5314 41.0657C18.5814 41.0657 19.4114 41.4107 20.0214 42.1007C20.6414 42.7907 20.9514 43.6757 20.9514 44.7557C20.9514 45.8257 20.6464 46.7157 20.0364 47.4257C19.4264 48.1257 18.5864 48.4757 17.5164 48.4757C16.4564 48.4757 15.6264 48.1257 15.0264 47.4257C14.4264 46.7257 14.1264 45.8407 14.1264 44.7707ZM15.7014 46.9007C16.1914 47.4807 16.8014 47.7707 17.5314 47.7707C18.2614 47.7707 18.8714 47.4857 19.3614 46.9157C19.8614 46.3357 20.1114 45.6207 20.1114 44.7707C20.1114 43.9207 19.8614 43.2107 19.3614 42.6407C18.8614 42.0607 18.2514 41.7707 17.5314 41.7707C16.8114 41.7707 16.2014 42.0557 15.7014 42.6257C15.2114 43.1957 14.9664 43.9057 14.9664 44.7557C14.9664 45.6057 15.2114 46.3207 15.7014 46.9007ZM21.9394 39.5957H21.6244C21.3944 39.5957 21.2794 39.4657 21.2794 39.2057C21.2794 38.9457 21.3944 38.8157 21.6244 38.8157H23.1694C23.3994 38.8157 23.5144 38.9457 23.5144 39.2057C23.5144 39.4657 23.3994 39.5957 23.1694 39.5957H22.7794V43.7507L25.0744 41.9507H24.7594C24.6694 41.9507 24.5894 41.9157 24.5194 41.8457C24.4594 41.7657 24.4294 41.6757 24.4294 41.5757C24.4294 41.4657 24.4594 41.3757 24.5194 41.3057C24.5794 41.2357 24.6594 41.2007 24.7594 41.2007H26.5444C26.7544 41.2007 26.8594 41.3257 26.8594 41.5757C26.8594 41.8257 26.7544 41.9507 26.5444 41.9507H26.0944L24.5644 43.1807L27.0394 47.6057H27.4744C27.6844 47.6057 27.7894 47.7357 27.7894 47.9957C27.7894 48.2557 27.6844 48.3857 27.4744 48.3857H25.7644C25.5144 48.3857 25.3894 48.2557 25.3894 47.9957C25.3894 47.7357 25.5144 47.6057 25.7644 47.6057H26.0944L23.9194 43.6907L22.7794 44.5457V47.6057H23.0794C23.2994 47.6057 23.4094 47.7357 23.4094 47.9957C23.4094 48.2557 23.2994 48.3857 23.0794 48.3857H21.5494C21.3394 48.3857 21.2344 48.2557 21.2344 47.9957C21.2344 47.7357 21.3394 47.6057 21.5494 47.6057H21.9394V39.5957ZM35.0613 38.8157C35.3113 38.8157 35.4363 38.9507 35.4363 39.2207C35.4363 39.4807 35.3113 39.6107 35.0613 39.6107H34.6563V48.0407C34.6563 48.3107 34.5213 48.4457 34.2513 48.4457C34.0113 48.4457 33.8463 48.3507 33.7563 48.1607L29.7363 40.4657V47.6057H30.0813C30.3213 47.6057 30.4413 47.7357 30.4413 47.9957C30.4413 48.2557 30.3213 48.3857 30.0813 48.3857H28.5963C28.3563 48.3857 28.2363 48.2557 28.2363 47.9957C28.2363 47.7357 28.3563 47.6057 28.5963 47.6057H28.9563V39.6107H28.5963C28.3563 39.6107 28.2363 39.4807 28.2363 39.2207C28.2363 38.9507 28.3563 38.8157 28.5963 38.8157H29.6013C29.7513 38.8157 29.8663 38.8957 29.9463 39.0557L33.8763 46.5707V39.6107H33.4863C33.2463 39.6107 33.1263 39.4807 33.1263 39.2207C33.1263 38.9507 33.2463 38.8157 33.4863 38.8157H35.0613ZM40.266 43.4057C40.226 43.0057 40.046 42.6207 39.726 42.2507C39.406 41.8807 39.006 41.6957 38.526 41.6957C38.056 41.6957 37.666 41.8707 37.356 42.2207C37.046 42.5707 36.831 42.9657 36.711 43.4057H40.266ZM38.691 48.5357C37.781 48.5357 37.051 48.1807 36.501 47.4707C35.951 46.7607 35.676 45.8557 35.676 44.7557C35.676 43.6557 35.936 42.7607 36.456 42.0707C36.986 41.3807 37.681 41.0357 38.541 41.0357C38.981 41.0357 39.376 41.1357 39.726 41.3357C40.076 41.5257 40.346 41.7657 40.536 42.0557C40.936 42.6457 41.136 43.2057 41.136 43.7357C41.136 44.0157 41.006 44.1557 40.746 44.1557H36.546C36.526 44.2857 36.516 44.4707 36.516 44.7107C36.516 45.6307 36.721 46.3857 37.131 46.9757C37.551 47.5657 38.071 47.8607 38.691 47.8607C38.961 47.8607 39.206 47.7907 39.426 47.6507C39.646 47.5007 39.801 47.3607 39.891 47.2307C39.981 47.0907 40.081 46.9057 40.191 46.6757C40.311 46.4457 40.471 46.3307 40.671 46.3307C40.971 46.3307 41.121 46.4657 41.121 46.7357C41.121 47.0857 40.896 47.4757 40.446 47.9057C40.006 48.3257 39.421 48.5357 38.691 48.5357ZM42.6328 42.3707C42.6328 42.7307 42.9928 43.1757 43.7128 43.7057L44.2078 44.0807C44.4878 44.2807 44.7078 44.4557 44.8678 44.6057C45.0378 44.7457 45.2128 44.9807 45.3928 45.3107C45.5828 45.6307 45.6778 45.9707 45.6778 46.3307C45.6778 46.8907 45.4928 47.4007 45.1228 47.8607C44.7628 48.3107 44.2528 48.5357 43.5928 48.5357C42.9328 48.5357 42.3928 48.3807 41.9728 48.0707C41.5628 47.7507 41.3578 47.3457 41.3578 46.8557C41.3578 46.5557 41.4378 46.3007 41.5978 46.0907C41.7578 45.8707 41.9278 45.7607 42.1078 45.7607C42.2878 45.7607 42.4228 45.8207 42.5128 45.9407C42.6128 46.0507 42.6628 46.1957 42.6628 46.3757C42.6628 46.7357 42.5428 47.0057 42.3028 47.1857C42.3228 47.3857 42.4478 47.5557 42.6778 47.6957C42.9178 47.8357 43.2278 47.9057 43.6078 47.9057C43.9978 47.9057 44.3128 47.7657 44.5528 47.4857C44.7928 47.2057 44.9128 46.9107 44.9128 46.6007C44.9128 46.2807 44.8378 46.0057 44.6878 45.7757C44.5378 45.5457 44.3878 45.3707 44.2378 45.2507C44.0878 45.1307 43.8478 44.9507 43.5178 44.7107L43.2478 44.5157C42.7678 44.1757 42.4078 43.8657 42.1678 43.5857C41.9278 43.2957 41.8078 42.9457 41.8078 42.5357C41.8078 42.1157 41.9578 41.7657 42.2578 41.4857C42.5578 41.2057 42.9278 41.0657 43.3678 41.0657C43.8078 41.0657 44.2028 41.1907 44.5528 41.4407C44.9028 41.6907 45.0778 42.0007 45.0778 42.3707C45.0778 42.5407 45.0328 42.6857 44.9428 42.8057C44.8628 42.9157 44.7428 42.9707 44.5828 42.9707C44.4228 42.9707 44.2628 42.8807 44.1028 42.7007C43.9528 42.5107 43.8778 42.3357 43.8778 42.1757C43.8778 42.0057 43.9028 41.8607 43.9528 41.7407C43.8628 41.6707 43.6828 41.6357 43.4128 41.6357C43.1528 41.6357 42.9578 41.7157 42.8278 41.8757C42.6978 42.0257 42.6328 42.1907 42.6328 42.3707ZM48.8782 47.4107C48.8782 47.2807 48.9182 47.1757 48.9982 47.0957C49.0782 47.0157 49.1832 46.9757 49.3132 46.9757C49.4432 46.9757 49.5482 47.0157 49.6282 47.0957C49.7082 47.1657 49.7482 47.2657 49.7482 47.3957C49.7482 47.6857 49.6182 47.9507 49.3582 48.1907C49.1082 48.4207 48.7932 48.5357 48.4132 48.5357C48.0332 48.5357 47.7182 48.4057 47.4682 48.1457C47.2182 47.8757 47.0932 47.5457 47.0932 47.1557V41.9657H46.4482C46.3382 41.9657 46.2432 41.9257 46.1632 41.8457C46.0932 41.7657 46.0582 41.6757 46.0582 41.5757C46.0582 41.4757 46.0932 41.3857 46.1632 41.3057C46.2432 41.2257 46.3382 41.1857 46.4482 41.1857H46.8082C46.9682 41.1857 47.0682 41.1657 47.1082 41.1257C47.1482 41.0757 47.1682 40.9807 47.1682 40.8407V40.0307C47.1682 39.6407 47.3682 39.4457 47.7682 39.4457C47.8882 39.4457 47.9482 39.5057 47.9482 39.6257V41.1857H48.6082C48.8782 41.1857 49.0132 41.3207 49.0132 41.5907C49.0132 41.6907 48.9782 41.7807 48.9082 41.8607C48.8382 41.9307 48.7382 41.9657 48.6082 41.9657H47.9482V47.1407C47.9482 47.6107 48.1032 47.8457 48.4132 47.8457C48.7232 47.8457 48.8782 47.7007 48.8782 47.4107Z" fill="black"/>
</svg>
