<svg width="31" height="37" viewBox="0 0 31 37" fill="none" xmlns="http://www.w3.org/2000/svg">
<path d="M30.5 30.8857C24.0916 30.5505 20.3438 31.6838 15 35.386C14.135 33.8499 13.4475 33.3686 12 32.886M2.5 21.8843H4.5M2.5 24.8843H6M2.5 27.3843H4.5M3 30.3843H1M27.5 18.8843H26M27.5 21.8843H26M27.5 24.8843H24.5M27.5 27.8857H22.5M1.5 10.3857C9.1801 11.1445 17 12.8857 18.5 14.8857C20 16.8857 19.5434 20.552 16.5 23.3857C14.3059 24.412 12.9869 24.3603 10.5 23.3857C5.44661 21.1904 3.75236 17.8187 1.5 10.3857Z" stroke="#3E3F42"/>
<path d="M27.5 8.38574C25 8.88458 23 4.38574 20 4.38574C17 4.38574 15.1004 6.25859 13 11.8857" stroke="#3E3F42" stroke-linecap="round" stroke-linejoin="round"/>
<path d="M8 34.8843C5.77496 34.535 4.29447 34.5924 1.5 34.8843C4.96903 30.5442 6.68317 28.0526 9 23.3857M8 34.8843L9.00759 32.886M8 34.8843C7.86538 34.8634 8.37177 33.9634 9.00759 32.886M9.00759 32.886C9.80319 31.5379 10.8014 29.9122 11 29.3843C11.3572 28.4345 13.9387 29.8158 16.5 28.8843C19.0613 27.9528 23.8084 26.3843 24.5 21.3843C25.1916 16.3843 23.1311 12.1671 24 10.8843C24.5552 9.30671 25.3974 8.44852 27.5 8.38574" stroke="#3E3F42" stroke-linecap="round"/>
<path d="M30 30.8843V16.8843M0.5 30.8843V16.8843" stroke="#3E3F42"/>
<circle cx="20.8501" cy="8.13428" r="0.75" fill="#3E3F42"/>
<path d="M27.5015 0.0813584C27.5015 -0.127064 27.5015 0.0957899 27.5015 0.40167C27.5015 0.496538 27.5015 0.920604 27.5015 1.00518C27.5015 1.17007 27.5015 0.962087 27.5015 1.1585C27.5015 1.22567 27.5015 1.89739 27.5015 1.95245C27.5015 2.24931 27.5015 2.07821 27.5015 2.221C27.5016 2.92548 27.5016 3.17764 27.5016 3.48369C27.5017 3.58403 27.5017 4.19364 27.5017 3.92705C27.5017 3.89533 27.5017 3.30572 27.5017 3.25713C27.5017 2.5132 27.5017 3.70348 27.5017 3.86162C27.5017 4.48603 27.5017 4.54034 27.5017 4.31279C27.5017 4.21426 27.5017 3.04316 27.5017 3.70049C27.5017 3.7449 27.5017 4.37101 27.5017 4.43779C27.5017 4.58798 27.5017 4.47607 27.5017 4.52568C27.5017 4.62445 27.5017 4.61816 27.5017 4.62529C27.5017 4.64049 27.5018 4.95173 27.5018 4.80986C27.5018 4.77772 27.5018 4.13588 27.5018 4.02666C27.5018 3.91761 27.5018 3.97204 27.5018 4.12334C27.5018 4.27472 27.5018 4.77919 27.5018 4.89482C27.5018 5.87079 27.5018 4.51907 27.5018 4.48564C27.5018 3.91605 27.5018 4.68608 27.5018 4.68388C27.5018 4.68058 27.5018 4.42637 27.5018 4.46123C27.5019 4.50524 27.5019 4.85305 27.5019 4.79326C27.5019 4.78769 27.5019 4.03304 27.5019 4.02471C27.5019 3.93689 27.5019 4.01915 27.5019 4.52861C27.5019 4.58037 27.5019 5.24295 27.5019 5.33427C27.5019 5.87879 27.5019 7.18686 27.5019 4.30205C27.502 4.4147 27.502 4.53108 27.502 5.11259C27.502 5.48686 27.502 6.20867 27.502 5.90068C27.502 5.83205 27.502 5.19992 27.502 5.14482C27.502 4.91341 27.502 5.11889 27.502 4.79228C27.502 4.72436 27.502 4.15795 27.502 4.05596C27.502 3.22993 27.502 4.5954 27.502 4.69463C27.502 5.43452 27.502 5.14336 27.502 5.16142C27.502 5.16593 27.502 4.40511 27.502 4.38213C27.502 4.27309 27.502 4.33848 27.502 4.67607C27.5021 4.75299 27.502 5.40107 27.502 5.47099C27.5021 5.77139 27.5021 4.54734 27.5021 4.81181C27.5021 4.866 27.5021 5.4208 27.5021 5.48173C27.5021 6.43822 27.5021 5.08294 27.5021 5.05302C27.5021 4.64418 27.5021 6.05902 27.5021 5.85868C27.5021 5.83329 27.5021 5.13129 27.5021 5.10283C27.5021 4.90904 27.5021 5.10188 27.5021 5.66337C27.5021 5.74973 27.5021 6.27707 27.5021 6.34208C27.5021 7.35782 27.5021 5.99685 27.5021 5.9456C27.5021 5.57665 27.5022 6.71799 27.5022 5.09697C27.5022 5.65951 27.5022 4.74923 27.5022 6.20146C27.5022 6.21828 27.5022 6.88856 27.5022 6.91923C27.5022 7.29558 27.5022 6.25385 27.5022 4.97978C27.5023 4.65986 27.5023 6.19808 27.5023 6.31083C27.5023 6.72633 27.5023 7.72352 27.5023 7.80399C27.5023 8.43586 27.5023 5.13807 27.5023 5.13701C27.5023 5.1425 27.5023 5.7495 27.5023 5.80986C27.5023 5.99934 27.5023 5.75814 27.5023 5.96708C27.5023 6.45057 27.5023 8.05301 27.5023 7.1204C27.5023 6.99936 27.5023 5.12872 27.5023 5.21708C27.5023 5.2539 27.5023 5.22184 27.5023 5.34306C27.5023 5.46414 27.5023 6.06695 27.5023 6.09306C27.5023 6.89017 27.5023 7.22054 27.5023 8.40067C27.5023 9.57634 27.5023 6.77225 27.5023 6.45927C27.5023 6.14718 27.5023 6.80485 27.5023 7.03348C27.5023 7.26221 27.5023 7.64526 27.5023 7.77469C27.5023 8.62036 27.5023 6.38284 27.5023 5.93779C27.5023 4.88398 27.5023 6.9635 27.5023 7.16727C27.5023 7.2223 27.5023 6.74868 27.5023 6.70438C27.5023 6.53523 27.5023 7.1841 27.5023 6.58915C27.5023 6.4922 27.5023 5.24193 27.5023 6.15946C27.5023 6.29177 27.5023 6.80998 27.5023 6.92606C27.5024 7.10027 27.5024 7.21354 27.5024 7.04032C27.5024 6.91216 27.5024 6.05827 27.5024 6.32353C27.5024 6.44197 27.5024 6.9415 27.5024 7.12235C27.5024 7.30315 27.5024 7.2812 27.5024 7.26395C27.5024 7.24632 27.5024 6.59861 27.5024 6.55497C27.5024 6.30501 27.5024 5.99268 27.5024 5.99345C27.5024 5.91438 27.5024 7.00618 27.5024 6.64481C27.5024 6.61739 27.5024 5.93436 27.5024 5.92314C27.5024 5.63696 27.5024 7.45298 27.5024 8.06083C27.5024 6.67476 27.5024 6.92573 27.5024 6.77372C27.5024 6.69934 27.5024 6.16265 27.5024 6.10771C27.5024 5.29253 27.5025 6.34544 27.5025 6.56083C27.5025 7.35316 27.5025 6.41697 27.5025 6.94657C27.5025 7.47222 27.5025 8.25147 27.5025 8.24149C27.5025 7.74532 27.5025 6.44871 27.5025 6.23857C27.5025 5.44369 27.5025 6.46101 27.5025 6.56669C27.5025 6.67228 27.5025 6.58073 27.5025 6.76005C27.5025 7.08427 27.5025 6.12226 27.5025 5.68193C27.5025 5.24164 27.5025 7.60863 27.5025 8.11747C27.5025 8.62607 27.5025 8.10252 27.5025 8.38211C27.5025 8.66165 27.5025 9.00762 27.5025 9.11258C27.5025 9.21744 27.5025 8.3126 27.5025 7.78055C27.5025 6.65337 27.5025 5.47035 27.5025 5.88603C27.5025 5.9107 27.5025 6.53308 27.5025 6.59599C27.5025 7.07513 27.5026 7.10483 27.5026 7.5286C27.5026 7.58784 27.5026 8.28023 27.5026 8.32254C27.5026 8.76541 27.5026 7.59796 27.5026 6.30107C27.5026 8.02695 27.5026 9.08286 27.5026 9.09305C27.5026 9.09978 27.5026 8.346 27.5026 7.81473C27.5026 7.65458 27.5026 8.17215 27.5026 7.81766C27.5026 6.65888 27.5026 5.36169 27.5026 5.87822C27.5026 5.90276 27.5026 6.53706 27.5026 6.57548C27.5026 6.82692 27.5026 5.61485 27.5026 5.46806C27.5026 5.35288 27.5026 6.09199 27.5026 6.2122C27.5026 8.1526 27.5026 7.70827 27.5026 6.3704C27.5026 6.42517 27.5026 6.34954 27.5027 6.53446C27.5027 6.59751 27.5027 7.15931 27.5027 7.22001C27.5027 8.17225 27.5027 6.87065 27.5027 6.81962C27.5027 6.32359 27.5027 7.31009 27.5027 6.34599C27.5027 6.31126 27.5027 4.9634 27.5027 5.94755C27.5027 6.01539 27.5027 6.62864 27.5027 6.67606C27.5027 6.72359 27.5027 7.44614 27.5027 6.82157C27.5027 6.67121 27.5027 5.57702 27.5027 6.43192C27.5027 6.54801 27.5027 6.93458 27.5027 7.1497C27.5027 7.83513 27.5027 6.47278 27.5027 7.63016C27.5027 8.7875 27.5027 9.65426 27.5027 8.85574C27.5027 8.83253 27.5027 7.75274 27.5027 7.76981C27.5027 7.79799 27.5027 8.02294 27.5027 8.0159C27.5027 8.01215 27.5027 7.34165 27.5027 7.32938C27.5028 6.95366 27.5028 7.5514 27.5028 7.81083C27.5028 7.85971 27.5028 6.94538 27.5028 7.66825C27.5028 8.45956 27.5028 11.7513 27.5028 10.9671C27.5028 10.6534 27.5028 6.47722 27.5028 8.6409C27.5028 8.10476 27.5028 9.21212 27.5028 8.44657C27.5028 8.41265 27.5028 7.24711 27.5028 7.26298C27.5028 7.28878 27.5028 7.83353 27.5028 7.86942C27.5029 8.03351 27.5029 7.56743 27.5029 7.63993C27.5029 7.66627 27.5029 8.22954 27.5029 8.26102C27.5029 8.29198 27.5029 7.55026 27.5029 7.90848C27.5029 8.18153 27.5029 9.69758 27.5029 9.8743C27.5029 8.37888 27.5029 8.40968 27.5029 8.01493C27.5029 7.93834 27.5029 7.41785 27.5029 7.35477C27.5029 7.08651 27.5029 7.51788 27.5029 7.22587C27.5029 7.15573 27.5029 6.64504 27.5029 6.55888C27.5029 5.80678 27.5029 6.95554 27.5029 7.15555C27.5029 7.91517 27.5029 7.25095 27.5029 7.55008C27.5029 7.84918 27.5029 8.22307 27.5029 8.40457C27.5029 8.77999 27.5029 8.69751 27.5029 8.72098C27.5029 8.72719 27.5029 8.04549 27.5029 8.03055C27.5029 7.85765 27.5029 8.58279 27.5029 7.22489C27.5029 10.7359 27.5029 6.88434 27.503 7.58719C27.503 7.64404 27.503 9.30437 27.503 9.54813C27.5029 9.79165 27.5029 9.27265 27.5029 9.65262C27.5029 9.74179 27.5029 11.2976 27.5029 11.3919C27.5029 12.1284 27.5029 9.64729 27.5029 9.51102C27.5029 8.04037 27.5029 9.71649 27.5029 9.8323C27.5029 10.363 27.5029 10.0141 27.5029 10.3928C27.5029 10.6377 27.5029 12.2629 27.5029 12.2132C27.5029 12.0487 27.5029 9.78151 27.5029 11.7473C27.5029 12.1666 27.5029 13.9429 27.5029 12.5462C27.5029 12.4581 27.5029 11.1803 27.5029 11.9885C27.5029 12.0905 27.5029 12.6081 27.5029 12.6516C27.5029 12.9329 27.5029 12.5205 27.5029 12.718C27.5029 12.9156 27.5029 13.21 27.5029 13.0344C27.5029 12.9294 27.5029 11.9649 27.5029 11.7288C27.5029 11.0485 27.5029 12.1639 27.5028 11.3401C27.5028 10.5122 27.5029 9.25493 27.5028 8.72C27.5028 10.065 27.5028 11.4455 27.5028 12.7981C27.5028 12.7508 27.5028 12.3158 27.5028 12.3753C27.5028 12.384 27.5028 13.107 27.5028 13.135C27.5028 13.2499 27.5028 12.7344 27.5028 12.9397C27.5028 13.1014 27.5028 13.867 27.5028 14.0598C27.5028 12.5208 27.5028 13.0433 27.5028 12.9026C27.5028 12.854 27.5028 12.443 27.5028 12.3089C27.5028 11.8129 27.5028 13.1729 27.5028 13.387C27.5028 14.3004 27.5028 11.2221 27.5028 11.2981C27.5028 11.3011 27.5028 12.942 27.5028 13.0442C27.5027 13.7105 27.5028 12.4731 27.5027 12.3518C27.5027 12.1303 27.5027 11.7384 27.5027 12.219C27.5027 12.3614 27.5027 13.3841 27.5027 12.593C27.5027 12.4894 27.5027 11.9471 27.5027 11.9153C27.5027 11.3858 27.5027 13.0901 27.5027 13.6673C27.5027 14.2443 27.5027 13.0679 27.5027 12.7288C27.5027 11.8516 27.5027 12.3539 27.5027 12.2678C27.5027 11.2435 27.5027 11.4198 27.5027 11.3333C27.5027 9.66225 27.5027 9.76255 27.5027 11.2503C27.5027 11.4128 27.5027 11.2569 27.5027 11.3333C27.5027 12.9728 27.5027 13.1827 27.5027 11.6507C27.5027 10.9326 27.5027 10.0954 27.5027 10.4016C27.5027 10.5399 27.5027 11.6905 27.5027 12.0042C27.5027 12.7199 27.5027 11.6466 27.5027 11.8157C27.5027 11.8771 27.5027 12.5069 27.5027 12.5706C27.5027 12.7415 27.5027 12.2689 27.5027 12.511C27.5027 12.5337 27.5027 13.193 27.5027 13.2014C27.5026 13.278 27.5026 12.8557 27.5026 12.844C27.5026 12.8387 27.5026 13.2023 27.5026 13.1292C27.5026 13.0064 27.5026 12.0476 27.5026 12.2805C27.5026 12.4296 27.5026 13.0891 27.5026 13.5383C27.5026 14.4093 27.5026 12.8492 27.5026 12.6077C27.5026 12.5997 27.5026 12.4442 27.5026 12.1057C27.5026 11.4004 27.5026 12.6046 27.5026 12.6077C27.5026 12.4516 27.5026 12.3019 27.5026 12.428C27.5026 12.4969 27.5026 13.1217 27.5026 13.1458C27.5026 13.7049 27.5025 13.8637 27.5025 13.5715C27.5025 13.5589 27.5025 12.8601 27.5025 12.8391C27.5025 12.5284 27.5025 13.3833 27.5025 13.8909C27.5025 14.3982 27.5025 14.2283 27.5025 13.0286C27.5025 13.1796 27.5025 12.6492 27.5025 12.3274C27.5025 12.0056 27.5025 13.3659 27.5025 13.3928C27.5025 14.2536 27.5025 13.475 27.5025 13.3538C27.5025 13.2938 27.5025 13.4912 27.5024 13.6399C27.5024 13.7597 27.5024 13.4409 27.5024 13.6448C27.5024 13.672 27.5024 14.2777 27.5024 14.301C27.5024 15.0257 27.5024 13.545 27.5024 13.2805C27.5024 12.3188 27.5024 11.8066 27.5024 12.2591C27.5024 12.3627 27.5024 14.4947 27.5024 14.6194C27.5024 14.7776 27.5024 14.0134 27.5024 14.1985C27.5024 14.2136 27.5024 14.6851 27.5024 14.6643C27.5024 14.574 27.5024 14.2997 27.5024 14.3469C27.5024 14.3516 27.5024 15.0994 27.5024 15.1184C27.5024 15.2071 27.5024 15.1794 27.5024 14.8294C27.5024 14.7408 27.5024 14.2172 27.5024 14.0618C27.5024 13.1211 27.5024 14.4879 27.5024 14.5139C27.5023 15.1707 27.5023 13.9338 27.5023 14.5227C27.5023 14.5573 27.5023 16.0225 27.5023 14.7659C27.5023 14.6823 27.5023 13.3966 27.5023 14.2756C27.5023 14.3306 27.5023 14.9925 27.5023 14.9251C27.5023 14.8577 27.5023 15.2997 27.5023 14.5725C27.5023 14.3434 27.5023 13.0609 27.5023 14.0833C27.5023 14.1546 27.5023 16.4662 27.5023 14.8714C27.5023 14.6088 27.5023 12.9211 27.5023 13.7864C27.5023 13.9542 27.5023 14.3306 27.5023 14.5657C27.5023 14.928 27.5023 14.4759 27.5023 15.2278C27.5023 15.3609 27.5023 16.5064 27.5023 15.637C27.5023 15.5008 27.5023 14.9373 27.5023 14.8743C27.5023 14.5718 27.5022 14.9487 27.5022 14.5589C27.5022 14.4219 27.5022 13.511 27.5022 13.2669C27.5022 13.0228 27.5022 12.7881 27.5022 13.2044C27.5022 13.6208 27.5022 15.0726 27.5022 15.1887C27.5022 15.6933 27.5022 14.8416 27.5022 14.7171C27.5022 14.6984 27.5022 15.2179 27.5022 15.2278C27.5022 15.2664 27.5021 15.7535 27.5021 14.6497C27.5021 13.7656 27.5021 13.0925 27.5021 12.7327C27.5021 12.5611 27.5021 14.2489 27.5021 14.302C27.5021 14.8418 27.5021 14.0941 27.5021 14.3235C27.5021 14.3711 27.5021 15.0552 27.5021 15.0881C27.5021 15.2068 27.5021 14.9014 27.5021 14.9573C27.5021 14.9839 27.5021 15.5064 27.5021 15.4661C27.5021 15.3756 27.5021 15.156 27.5021 14.6663C27.5021 14.6216 27.5021 13.9717 27.5021 13.9475C27.5021 13.9102 27.5021 13.4272 27.5021 13.926C27.5021 14.0761 27.5021 15.2702 27.502 14.4456C27.502 14.2733 27.502 12.8394 27.502 14.0784C27.502 14.2843 27.502 15.9554 27.502 14.8782C27.502 14.5947 27.502 13.4213 27.502 13.6057C27.502 13.6352 27.502 14.2766 27.502 14.3391C27.502 14.5485 27.502 14.48 27.502 14.6809C27.502 14.7358 27.502 15.3996 27.502 15.4602C27.502 15.628 27.502 15.459 27.502 15.2512C27.502 15.1734 27.502 14.6236 27.502 14.5637C27.502 13.5905 27.502 14.9041 27.502 14.9807C27.502 15.4394 27.502 14.8223 27.502 14.9856C27.502 15.029 27.502 15.6553 27.502 15.7112C27.502 16.2569 27.502 15.1321 27.502 15.0081C27.502 14.657 27.502 14.7073 27.502 14.7874C27.5019 14.8177 27.502 15.5439 27.5019 15.5628C27.5019 15.6879 27.5019 15.6184 27.5019 15.218C27.5019 15.1413 27.5019 14.5821 27.5019 14.4544C27.5019 13.5607 27.5019 14.7797 27.5019 14.8958C27.5019 15.4259 27.5019 14.9314 27.5019 15.0237C27.5019 15.4833 27.5019 15.1557 27.5018 14.9534C27.5018 14.693 27.5018 14.1609 27.5018 14.2991C27.5018 14.3072 27.5018 15.0511 27.5018 15.0676C27.5018 15.247 27.5018 14.9563 27.5017 15.1712C27.5017 15.1875 27.5017 15.8927 27.5017 15.9426C27.5017 16.0499 27.5017 16.0116 27.5017 15.7864C27.5017 15.6779 27.5017 15.0727 27.5017 14.9758C27.5017 14.7489 27.5017 14.6987 27.5017 14.8118C27.5017 14.8614 27.5017 15.5828 27.5017 15.5911C27.5017 15.6626 27.5017 15.7869 27.5017 14.8528C27.5017 14.7886 27.5017 13.3226 27.5017 13.6038C27.5017 14.0106 27.5017 14.4892 27.5017 14.9241C27.5016 15.1583 27.5016 14.6501 27.5016 14.5715C27.5016 14.5684 27.5016 15.3452 27.5016 15.343C27.5016 15.3315 27.5016 15.5467 27.5015 14.7747C27.5015 14.6992 27.5015 13.3327 27.5015 13.5393C27.5015 13.577 27.5015 13.7593 27.5015 14.0559C27.5015 14.1007 27.5015 14.7385 27.5015 14.7571C27.5015 14.854 27.5015 14.7083 27.5015 14.3186C27.5015 14.2545 27.5015 13.5753 27.5015 13.5237C27.5015 13.1631 27.5015 13.6795 27.5015 13.0628C27.5015 12.6475 27.5015 11.4734 27.5015 10.3177C27.5015 10.1546 27.5015 10.1288 27.5015 9.45633C27.5015 7.76545 27.5015 5.91394 27.5015 4.11162C27.5015 3.72341 27.5015 4.14154 27.5015 3.20342C27.5015 3.14063 27.5015 2.82928 27.5015 2.51104C27.5015 2.29101 27.5015 1.60715 27.5015 1.3255C27.5015 1.0441 27.5015 1.61735 27.5015 1.28643C27.5015 0.951418 27.5015 0.17345 27.5015 0.0813584ZM27.5025 10.8889C27.5025 10.2356 27.5025 12.6284 27.5025 12.0559C27.5025 12.0254 27.5025 10.921 27.5025 10.8889ZM27.5028 10.511C27.5028 9.45564 27.5028 11.0075 27.5028 11.8225C27.5028 12.6367 27.5028 10.8309 27.5028 10.511ZM27.5029 9.74051C27.5029 8.90839 27.5029 12.3014 27.5029 11.6155C27.5029 11.5767 27.5029 9.78882 27.5029 9.74051ZM27.5015 9.98855C27.5015 9.95678 27.5015 9.92581 27.5015 9.9573C27.5015 10.7172 27.5015 10.7786 27.5015 9.98855ZM27.5029 8.90164C27.5029 8.44266 27.5029 8.9725 27.5029 9.54324C27.5029 10.0024 27.5029 9.47259 27.5029 8.90164ZM27.5023 8.33524C27.5023 8.29958 27.5023 8.26748 27.5023 8.46903C27.5023 9.11818 27.5023 8.93497 27.5023 8.33524ZM27.503 8.86258C27.503 8.73486 27.503 5.93206 27.503 6.24833C27.503 6.30555 27.503 7.14212 27.503 7.39481C27.503 7.85517 27.503 6.09535 27.503 7.03837C27.503 7.21097 27.503 8.87609 27.503 8.86649C27.503 8.86518 27.503 8.86388 27.503 8.86258ZM27.5025 8.01493C27.5025 7.98329 27.5025 7.95329 27.5025 7.98465C27.5025 8.74429 27.5025 8.80517 27.5025 8.01493ZM27.5022 6.85575C27.5022 6.78833 27.5022 6.72527 27.5022 6.78739C27.5022 8.02959 27.5022 8.16076 27.5022 6.85575ZM27.5026 6.26396C27.5026 5.49976 27.5026 5.40978 27.5026 6.36942C27.5026 6.31848 27.5026 6.31098 27.5026 6.26396Z" fill="#3E3F42"/>
</svg>
