<svg width="62" height="54" viewBox="0 0 62 54" fill="none" xmlns="http://www.w3.org/2000/svg">
<path d="M41 30.8857C34.5916 30.5505 30.8438 31.6838 25.5 35.386C24.635 33.8499 23.9475 33.3686 22.5 32.886M13 21.8843H15M13 24.8843H16.5M13 27.3843H15M13.5 30.3843H11.5M38 18.8843H36.5M38 21.8843H36.5M38 24.8843H35M38 27.8857H33M12 10.3857C19.6801 11.1445 27.5 12.8857 29 14.8857C30.5 16.8857 30.0434 20.552 27 23.3857C24.8059 24.412 23.4869 24.3603 21 23.3857C15.9466 21.1904 14.2524 17.8187 12 10.3857Z" stroke="#3E3F42"/>
<path d="M38 8.38574C35.5 8.88458 33.5 4.38574 30.5 4.38574C27.5 4.38574 25.6004 6.25859 23.5 11.8857" stroke="#3E3F42" stroke-linecap="round" stroke-linejoin="round"/>
<path d="M18.5 34.8843C16.275 34.535 14.7945 34.5924 12 34.8843C15.469 30.5442 17.1832 28.0526 19.5 23.3857M18.5 34.8843L19.5076 32.886M18.5 34.8843C18.3654 34.8634 18.8718 33.9634 19.5076 32.886M19.5076 32.886C20.3032 31.5379 21.3014 29.9122 21.5 29.3843C21.8572 28.4345 24.4387 29.8158 27 28.8843C29.5613 27.9528 34.3084 26.3843 35 21.3843C35.6916 16.3843 33.6311 12.1671 34.5 10.8843C35.0552 9.30671 35.8974 8.44852 38 8.38574" stroke="#3E3F42" stroke-linecap="round"/>
<path d="M40.5 30.8843V16.8843M11 30.8843V16.8843" stroke="#3E3F42"/>
<circle cx="31.3501" cy="8.13428" r="0.75" fill="#3E3F42"/>
<path d="M38.0015 0.0813584C38.0015 -0.127064 38.0015 0.0957899 38.0015 0.40167C38.0015 0.496538 38.0015 0.920604 38.0015 1.00518C38.0015 1.17007 38.0015 0.962087 38.0015 1.1585C38.0015 1.22567 38.0015 1.89739 38.0015 1.95245C38.0015 2.24931 38.0015 2.07821 38.0015 2.221C38.0016 2.92548 38.0016 3.17764 38.0016 3.48369C38.0017 3.58403 38.0017 4.19364 38.0017 3.92705C38.0017 3.89533 38.0017 3.30572 38.0017 3.25713C38.0017 2.5132 38.0017 3.70348 38.0017 3.86162C38.0017 4.48603 38.0017 4.54034 38.0017 4.31279C38.0017 4.21426 38.0017 3.04316 38.0017 3.70049C38.0017 3.7449 38.0017 4.37101 38.0017 4.43779C38.0017 4.58798 38.0017 4.47607 38.0017 4.52568C38.0017 4.62445 38.0017 4.61816 38.0017 4.62529C38.0017 4.64049 38.0018 4.95173 38.0018 4.80986C38.0018 4.77772 38.0018 4.13588 38.0018 4.02666C38.0018 3.91761 38.0018 3.97204 38.0018 4.12334C38.0018 4.27472 38.0018 4.77919 38.0018 4.89482C38.0018 5.87079 38.0018 4.51907 38.0018 4.48564C38.0018 3.91605 38.0018 4.68608 38.0018 4.68388C38.0018 4.68058 38.0018 4.42637 38.0018 4.46123C38.0019 4.50524 38.0019 4.85305 38.0019 4.79326C38.0019 4.78769 38.0019 4.03304 38.0019 4.02471C38.0019 3.93689 38.0019 4.01915 38.0019 4.52861C38.0019 4.58037 38.0019 5.24295 38.0019 5.33427C38.0019 5.87879 38.0019 7.18686 38.0019 4.30205C38.002 4.4147 38.002 4.53108 38.002 5.11259C38.002 5.48686 38.002 6.20867 38.002 5.90068C38.002 5.83205 38.002 5.19992 38.002 5.14482C38.002 4.91341 38.002 5.11889 38.002 4.79228C38.002 4.72436 38.002 4.15795 38.002 4.05596C38.002 3.22993 38.002 4.5954 38.002 4.69463C38.002 5.43452 38.002 5.14336 38.002 5.16142C38.002 5.16593 38.002 4.40511 38.002 4.38213C38.002 4.27309 38.002 4.33848 38.002 4.67607C38.0021 4.75299 38.002 5.40107 38.002 5.47099C38.0021 5.77139 38.0021 4.54734 38.0021 4.81181C38.0021 4.866 38.0021 5.4208 38.0021 5.48173C38.0021 6.43822 38.0021 5.08294 38.0021 5.05302C38.0021 4.64418 38.0021 6.05902 38.0021 5.85868C38.0021 5.83329 38.0021 5.13129 38.0021 5.10283C38.0021 4.90904 38.0021 5.10188 38.0021 5.66337C38.0021 5.74973 38.0021 6.27707 38.0021 6.34208C38.0021 7.35782 38.0021 5.99685 38.0021 5.9456C38.0021 5.57665 38.0022 6.71799 38.0022 5.09697C38.0022 5.65951 38.0022 4.74923 38.0022 6.20146C38.0022 6.21828 38.0022 6.88856 38.0022 6.91923C38.0022 7.29558 38.0022 6.25385 38.0022 4.97978C38.0023 4.65986 38.0023 6.19808 38.0023 6.31083C38.0023 6.72633 38.0023 7.72352 38.0023 7.80399C38.0023 8.43586 38.0023 5.13807 38.0023 5.13701C38.0023 5.1425 38.0023 5.7495 38.0023 5.80986C38.0023 5.99934 38.0023 5.75814 38.0023 5.96708C38.0023 6.45057 38.0023 8.05301 38.0023 7.1204C38.0023 6.99936 38.0023 5.12872 38.0023 5.21708C38.0023 5.2539 38.0023 5.22184 38.0023 5.34306C38.0023 5.46414 38.0023 6.06695 38.0023 6.09306C38.0023 6.89017 38.0023 7.22054 38.0023 8.40067C38.0023 9.57634 38.0023 6.77225 38.0023 6.45927C38.0023 6.14718 38.0023 6.80485 38.0023 7.03348C38.0023 7.26221 38.0023 7.64526 38.0023 7.77469C38.0023 8.62036 38.0023 6.38284 38.0023 5.93779C38.0023 4.88398 38.0023 6.9635 38.0023 7.16727C38.0023 7.2223 38.0023 6.74868 38.0023 6.70438C38.0023 6.53523 38.0023 7.1841 38.0023 6.58915C38.0023 6.4922 38.0023 5.24193 38.0023 6.15946C38.0023 6.29177 38.0023 6.80998 38.0023 6.92606C38.0024 7.10027 38.0024 7.21354 38.0024 7.04032C38.0024 6.91216 38.0024 6.05827 38.0024 6.32353C38.0024 6.44197 38.0024 6.9415 38.0024 7.12235C38.0024 7.30315 38.0024 7.2812 38.0024 7.26395C38.0024 7.24632 38.0024 6.59861 38.0024 6.55497C38.0024 6.30501 38.0024 5.99268 38.0024 5.99345C38.0024 5.91438 38.0024 7.00618 38.0024 6.64481C38.0024 6.61739 38.0024 5.93436 38.0024 5.92314C38.0024 5.63696 38.0024 7.45298 38.0024 8.06083C38.0024 6.67476 38.0024 6.92573 38.0024 6.77372C38.0024 6.69934 38.0024 6.16265 38.0024 6.10771C38.0024 5.29253 38.0025 6.34544 38.0025 6.56083C38.0025 7.35316 38.0025 6.41697 38.0025 6.94657C38.0025 7.47222 38.0025 8.25147 38.0025 8.24149C38.0025 7.74532 38.0025 6.44871 38.0025 6.23857C38.0025 5.44369 38.0025 6.46101 38.0025 6.56669C38.0025 6.67228 38.0025 6.58073 38.0025 6.76005C38.0025 7.08427 38.0025 6.12226 38.0025 5.68193C38.0025 5.24164 38.0025 7.60863 38.0025 8.11747C38.0025 8.62607 38.0025 8.10252 38.0025 8.38211C38.0025 8.66165 38.0025 9.00762 38.0025 9.11258C38.0025 9.21744 38.0025 8.3126 38.0025 7.78055C38.0025 6.65337 38.0025 5.47035 38.0025 5.88603C38.0025 5.9107 38.0025 6.53308 38.0025 6.59599C38.0025 7.07513 38.0026 7.10483 38.0026 7.5286C38.0026 7.58784 38.0026 8.28023 38.0026 8.32254C38.0026 8.76541 38.0026 7.59796 38.0026 6.30107C38.0026 8.02695 38.0026 9.08286 38.0026 9.09305C38.0026 9.09978 38.0026 8.346 38.0026 7.81473C38.0026 7.65458 38.0026 8.17215 38.0026 7.81766C38.0026 6.65888 38.0026 5.36169 38.0026 5.87822C38.0026 5.90276 38.0026 6.53706 38.0026 6.57548C38.0026 6.82692 38.0026 5.61485 38.0026 5.46806C38.0026 5.35288 38.0026 6.09199 38.0026 6.2122C38.0026 8.1526 38.0026 7.70827 38.0026 6.3704C38.0026 6.42517 38.0026 6.34954 38.0027 6.53446C38.0027 6.59751 38.0027 7.15931 38.0027 7.22001C38.0027 8.17225 38.0027 6.87065 38.0027 6.81962C38.0027 6.32359 38.0027 7.31009 38.0027 6.34599C38.0027 6.31126 38.0027 4.9634 38.0027 5.94755C38.0027 6.01539 38.0027 6.62864 38.0027 6.67606C38.0027 6.72359 38.0027 7.44614 38.0027 6.82157C38.0027 6.67121 38.0027 5.57702 38.0027 6.43192C38.0027 6.54801 38.0027 6.93458 38.0027 7.1497C38.0027 7.83513 38.0027 6.47278 38.0027 7.63016C38.0027 8.7875 38.0027 9.65426 38.0027 8.85574C38.0027 8.83253 38.0027 7.75274 38.0027 7.76981C38.0027 7.79799 38.0027 8.02294 38.0027 8.0159C38.0027 8.01215 38.0027 7.34165 38.0027 7.32938C38.0028 6.95366 38.0028 7.5514 38.0028 7.81083C38.0028 7.85971 38.0028 6.94538 38.0028 7.66825C38.0028 8.45956 38.0028 11.7513 38.0028 10.9671C38.0028 10.6534 38.0028 6.47722 38.0028 8.6409C38.0028 8.10476 38.0028 9.21212 38.0028 8.44657C38.0028 8.41265 38.0028 7.24711 38.0028 7.26298C38.0028 7.28878 38.0028 7.83353 38.0028 7.86942C38.0029 8.03351 38.0029 7.56743 38.0029 7.63993C38.0029 7.66627 38.0029 8.22954 38.0029 8.26102C38.0029 8.29198 38.0029 7.55026 38.0029 7.90848C38.0029 8.18153 38.0029 9.69758 38.0029 9.8743C38.0029 8.37888 38.0029 8.40968 38.0029 8.01493C38.0029 7.93834 38.0029 7.41785 38.0029 7.35477C38.0029 7.08651 38.0029 7.51788 38.0029 7.22587C38.0029 7.15573 38.0029 6.64504 38.0029 6.55888C38.0029 5.80678 38.0029 6.95554 38.0029 7.15555C38.0029 7.91517 38.0029 7.25095 38.0029 7.55008C38.0029 7.84918 38.0029 8.22307 38.0029 8.40457C38.0029 8.77999 38.0029 8.69751 38.0029 8.72098C38.0029 8.72719 38.0029 8.04549 38.0029 8.03055C38.0029 7.85765 38.0029 8.58279 38.0029 7.22489C38.0029 10.7359 38.0029 6.88434 38.003 7.58719C38.003 7.64404 38.003 9.30437 38.003 9.54813C38.0029 9.79165 38.0029 9.27265 38.0029 9.65262C38.0029 9.74179 38.0029 11.2976 38.0029 11.3919C38.0029 12.1284 38.0029 9.64729 38.0029 9.51102C38.0029 8.04037 38.0029 9.71649 38.0029 9.8323C38.0029 10.363 38.0029 10.0141 38.0029 10.3928C38.0029 10.6377 38.0029 12.2629 38.0029 12.2132C38.0029 12.0487 38.0029 9.78151 38.0029 11.7473C38.0029 12.1666 38.0029 13.9429 38.0029 12.5462C38.0029 12.4581 38.0029 11.1803 38.0029 11.9885C38.0029 12.0905 38.0029 12.6081 38.0029 12.6516C38.0029 12.9329 38.0029 12.5205 38.0029 12.718C38.0029 12.9156 38.0029 13.21 38.0029 13.0344C38.0029 12.9294 38.0029 11.9649 38.0029 11.7288C38.0029 11.0485 38.0029 12.1639 38.0028 11.3401C38.0028 10.5122 38.0029 9.25493 38.0028 8.72C38.0028 10.065 38.0028 11.4455 38.0028 12.7981C38.0028 12.7508 38.0028 12.3158 38.0028 12.3753C38.0028 12.384 38.0028 13.107 38.0028 13.135C38.0028 13.2499 38.0028 12.7344 38.0028 12.9397C38.0028 13.1014 38.0028 13.867 38.0028 14.0598C38.0028 12.5208 38.0028 13.0433 38.0028 12.9026C38.0028 12.854 38.0028 12.443 38.0028 12.3089C38.0028 11.8129 38.0028 13.1729 38.0028 13.387C38.0028 14.3004 38.0028 11.2221 38.0028 11.2981C38.0028 11.3011 38.0028 12.942 38.0028 13.0442C38.0027 13.7105 38.0028 12.4731 38.0027 12.3518C38.0027 12.1303 38.0027 11.7384 38.0027 12.219C38.0027 12.3614 38.0027 13.3841 38.0027 12.593C38.0027 12.4894 38.0027 11.9471 38.0027 11.9153C38.0027 11.3858 38.0027 13.0901 38.0027 13.6673C38.0027 14.2443 38.0027 13.0679 38.0027 12.7288C38.0027 11.8516 38.0027 12.3539 38.0027 12.2678C38.0027 11.2435 38.0027 11.4198 38.0027 11.3333C38.0027 9.66225 38.0027 9.76255 38.0027 11.2503C38.0027 11.4128 38.0027 11.2569 38.0027 11.3333C38.0027 12.9728 38.0027 13.1827 38.0027 11.6507C38.0027 10.9326 38.0027 10.0954 38.0027 10.4016C38.0027 10.5399 38.0027 11.6905 38.0027 12.0042C38.0027 12.7199 38.0027 11.6466 38.0027 11.8157C38.0027 11.8771 38.0027 12.5069 38.0027 12.5706C38.0027 12.7415 38.0027 12.2689 38.0027 12.511C38.0027 12.5337 38.0027 13.193 38.0027 13.2014C38.0026 13.278 38.0026 12.8557 38.0026 12.844C38.0026 12.8387 38.0026 13.2023 38.0026 13.1292C38.0026 13.0064 38.0026 12.0476 38.0026 12.2805C38.0026 12.4296 38.0026 13.0891 38.0026 13.5383C38.0026 14.4093 38.0026 12.8492 38.0026 12.6077C38.0026 12.5997 38.0026 12.4442 38.0026 12.1057C38.0026 11.4004 38.0026 12.6046 38.0026 12.6077C38.0026 12.4516 38.0026 12.3019 38.0026 12.428C38.0026 12.4969 38.0026 13.1217 38.0026 13.1458C38.0026 13.7049 38.0025 13.8637 38.0025 13.5715C38.0025 13.5589 38.0025 12.8601 38.0025 12.8391C38.0025 12.5284 38.0025 13.3833 38.0025 13.8909C38.0025 14.3982 38.0025 14.2283 38.0025 13.0286C38.0025 13.1796 38.0025 12.6492 38.0025 12.3274C38.0025 12.0056 38.0025 13.3659 38.0025 13.3928C38.0025 14.2536 38.0025 13.475 38.0025 13.3538C38.0025 13.2938 38.0025 13.4912 38.0024 13.6399C38.0024 13.7597 38.0024 13.4409 38.0024 13.6448C38.0024 13.672 38.0024 14.2777 38.0024 14.301C38.0024 15.0257 38.0024 13.545 38.0024 13.2805C38.0024 12.3188 38.0024 11.8066 38.0024 12.2591C38.0024 12.3627 38.0024 14.4947 38.0024 14.6194C38.0024 14.7776 38.0024 14.0134 38.0024 14.1985C38.0024 14.2136 38.0024 14.6851 38.0024 14.6643C38.0024 14.574 38.0024 14.2997 38.0024 14.3469C38.0024 14.3516 38.0024 15.0994 38.0024 15.1184C38.0024 15.2071 38.0024 15.1794 38.0024 14.8294C38.0024 14.7408 38.0024 14.2172 38.0024 14.0618C38.0024 13.1211 38.0024 14.4879 38.0024 14.5139C38.0023 15.1707 38.0023 13.9338 38.0023 14.5227C38.0023 14.5573 38.0023 16.0225 38.0023 14.7659C38.0023 14.6823 38.0023 13.3966 38.0023 14.2756C38.0023 14.3306 38.0023 14.9925 38.0023 14.9251C38.0023 14.8577 38.0023 15.2997 38.0023 14.5725C38.0023 14.3434 38.0023 13.0609 38.0023 14.0833C38.0023 14.1546 38.0023 16.4662 38.0023 14.8714C38.0023 14.6088 38.0023 12.9211 38.0023 13.7864C38.0023 13.9542 38.0023 14.3306 38.0023 14.5657C38.0023 14.928 38.0023 14.4759 38.0023 15.2278C38.0023 15.3609 38.0023 16.5064 38.0023 15.637C38.0023 15.5008 38.0023 14.9373 38.0023 14.8743C38.0023 14.5718 38.0022 14.9487 38.0022 14.5589C38.0022 14.4219 38.0022 13.511 38.0022 13.2669C38.0022 13.0228 38.0022 12.7881 38.0022 13.2044C38.0022 13.6208 38.0022 15.0726 38.0022 15.1887C38.0022 15.6933 38.0022 14.8416 38.0022 14.7171C38.0022 14.6984 38.0022 15.2179 38.0022 15.2278C38.0022 15.2664 38.0021 15.7535 38.0021 14.6497C38.0021 13.7656 38.0021 13.0925 38.0021 12.7327C38.0021 12.5611 38.0021 14.2489 38.0021 14.302C38.0021 14.8418 38.0021 14.0941 38.0021 14.3235C38.0021 14.3711 38.0021 15.0552 38.0021 15.0881C38.0021 15.2068 38.0021 14.9014 38.0021 14.9573C38.0021 14.9839 38.0021 15.5064 38.0021 15.4661C38.0021 15.3756 38.0021 15.156 38.0021 14.6663C38.0021 14.6216 38.0021 13.9717 38.0021 13.9475C38.0021 13.9102 38.0021 13.4272 38.0021 13.926C38.0021 14.0761 38.0021 15.2702 38.002 14.4456C38.002 14.2733 38.002 12.8394 38.002 14.0784C38.002 14.2843 38.002 15.9554 38.002 14.8782C38.002 14.5947 38.002 13.4213 38.002 13.6057C38.002 13.6352 38.002 14.2766 38.002 14.3391C38.002 14.5485 38.002 14.48 38.002 14.6809C38.002 14.7358 38.002 15.3996 38.002 15.4602C38.002 15.628 38.002 15.459 38.002 15.2512C38.002 15.1734 38.002 14.6236 38.002 14.5637C38.002 13.5905 38.002 14.9041 38.002 14.9807C38.002 15.4394 38.002 14.8223 38.002 14.9856C38.002 15.029 38.002 15.6553 38.002 15.7112C38.002 16.2569 38.002 15.1321 38.002 15.0081C38.002 14.657 38.002 14.7073 38.002 14.7874C38.0019 14.8177 38.002 15.5439 38.0019 15.5628C38.0019 15.6879 38.0019 15.6184 38.0019 15.218C38.0019 15.1413 38.0019 14.5821 38.0019 14.4544C38.0019 13.5607 38.0019 14.7797 38.0019 14.8958C38.0019 15.4259 38.0019 14.9314 38.0019 15.0237C38.0019 15.4833 38.0019 15.1557 38.0018 14.9534C38.0018 14.693 38.0018 14.1609 38.0018 14.2991C38.0018 14.3072 38.0018 15.0511 38.0018 15.0676C38.0018 15.247 38.0018 14.9563 38.0017 15.1712C38.0017 15.1875 38.0017 15.8927 38.0017 15.9426C38.0017 16.0499 38.0017 16.0116 38.0017 15.7864C38.0017 15.6779 38.0017 15.0727 38.0017 14.9758C38.0017 14.7489 38.0017 14.6987 38.0017 14.8118C38.0017 14.8614 38.0017 15.5828 38.0017 15.5911C38.0017 15.6626 38.0017 15.7869 38.0017 14.8528C38.0017 14.7886 38.0017 13.3226 38.0017 13.6038C38.0017 14.0106 38.0017 14.4892 38.0017 14.9241C38.0016 15.1583 38.0016 14.6501 38.0016 14.5715C38.0016 14.5684 38.0016 15.3452 38.0016 15.343C38.0016 15.3315 38.0016 15.5467 38.0015 14.7747C38.0015 14.6992 38.0015 13.3327 38.0015 13.5393C38.0015 13.577 38.0015 13.7593 38.0015 14.0559C38.0015 14.1007 38.0015 14.7385 38.0015 14.7571C38.0015 14.854 38.0015 14.7083 38.0015 14.3186C38.0015 14.2545 38.0015 13.5753 38.0015 13.5237C38.0015 13.1631 38.0015 13.6795 38.0015 13.0628C38.0015 12.6475 38.0015 11.4734 38.0015 10.3177C38.0015 10.1546 38.0015 10.1288 38.0015 9.45633C38.0015 7.76545 38.0015 5.91394 38.0015 4.11162C38.0015 3.72341 38.0015 4.14154 38.0015 3.20342C38.0015 3.14063 38.0015 2.82928 38.0015 2.51104C38.0015 2.29101 38.0015 1.60715 38.0015 1.3255C38.0015 1.0441 38.0015 1.61735 38.0015 1.28643C38.0015 0.951418 38.0015 0.17345 38.0015 0.0813584ZM38.0025 10.8889C38.0025 10.2356 38.0025 12.6284 38.0025 12.0559C38.0025 12.0254 38.0025 10.921 38.0025 10.8889ZM38.0028 10.511C38.0028 9.45564 38.0028 11.0075 38.0028 11.8225C38.0028 12.6367 38.0028 10.8309 38.0028 10.511ZM38.0029 9.74051C38.0029 8.90839 38.0029 12.3014 38.0029 11.6155C38.0029 11.5767 38.0029 9.78882 38.0029 9.74051ZM38.0015 9.98855C38.0015 9.95678 38.0015 9.92581 38.0015 9.9573C38.0015 10.7172 38.0015 10.7786 38.0015 9.98855ZM38.0029 8.90164C38.0029 8.44266 38.0029 8.9725 38.0029 9.54324C38.0029 10.0024 38.0029 9.47259 38.0029 8.90164ZM38.0023 8.33524C38.0023 8.29958 38.0023 8.26748 38.0023 8.46903C38.0023 9.11818 38.0023 8.93497 38.0023 8.33524ZM38.003 8.86258C38.003 8.73486 38.003 5.93206 38.003 6.24833C38.003 6.30555 38.003 7.14212 38.003 7.39481C38.003 7.85517 38.003 6.09535 38.003 7.03837C38.003 7.21097 38.003 8.87609 38.003 8.86649C38.003 8.86518 38.003 8.86388 38.003 8.86258ZM38.0025 8.01493C38.0025 7.98329 38.0025 7.95329 38.0025 7.98465C38.0025 8.74429 38.0025 8.80517 38.0025 8.01493ZM38.0022 6.85575C38.0022 6.78833 38.0022 6.72527 38.0022 6.78739C38.0022 8.02959 38.0022 8.16076 38.0022 6.85575ZM38.0026 6.26396C38.0026 5.49976 38.0026 5.40978 38.0026 6.36942C38.0026 6.31848 38.0026 6.31098 38.0026 6.26396Z" fill="#3E3F42"/>
<path d="M0.675 48.1857C0.635 48.1857 0.6 48.1757 0.57 48.1557C0.54 48.1357 0.525 48.0757 0.525 47.9757C0.525 47.9557 0.53 47.9257 0.54 47.8857C0.55 47.8357 0.575 47.7607 0.615 47.6607C0.945 47.6207 1.185 47.5307 1.335 47.3907C1.495 47.2407 1.575 46.9757 1.575 46.5957V39.2157C1.575 38.9557 1.555 38.7657 1.515 38.6457C1.485 38.5257 1.4 38.4507 1.26 38.4207C1.13 38.3807 0.91 38.3607 0.6 38.3607C0.6 38.3107 0.605 38.2457 0.615 38.1657C0.625 38.0857 0.635 38.0207 0.645 37.9707C0.675 37.8607 0.71 37.8007 0.75 37.7907C0.8 37.7707 0.83 37.7607 0.84 37.7607H3.885C4.285 37.7607 4.685 37.8007 5.085 37.8807C5.485 37.9507 5.85 38.0757 6.18 38.2557C6.52 38.4257 6.79 38.6607 6.99 38.9607C7.2 39.2507 7.305 39.6157 7.305 40.0557C7.305 40.6057 7.12 41.0957 6.75 41.5257C6.38 41.9557 5.855 42.2507 5.175 42.4107C5.635 42.4907 6.08 42.6407 6.51 42.8607C6.95 43.0807 7.31 43.3857 7.59 43.7757C7.88 44.1657 8.025 44.6557 8.025 45.2457C8.025 46.1557 7.69 46.8757 7.02 47.4057C6.36 47.9257 5.35 48.1857 3.99 48.1857H0.675ZM2.895 47.5707H3.72C4.13 47.5707 4.53 47.5407 4.92 47.4807C5.32 47.4107 5.68 47.2907 6 47.1207C6.32 46.9507 6.575 46.7157 6.765 46.4157C6.955 46.1057 7.05 45.7107 7.05 45.2307C7.05 44.6407 6.88 44.1707 6.54 43.8207C6.21 43.4707 5.765 43.2207 5.205 43.0707C4.655 42.9107 4.045 42.8307 3.375 42.8307C3.075 42.8307 2.775 42.8407 2.475 42.8607V46.6107C2.475 46.6307 2.475 46.6557 2.475 46.6857C2.475 47.0257 2.49 47.2607 2.52 47.3907C2.56 47.5107 2.685 47.5707 2.895 47.5707ZM2.475 42.1857C2.675 42.2057 2.875 42.2157 3.075 42.2157C3.635 42.2157 4.16 42.1457 4.65 42.0057C5.15 41.8657 5.555 41.6457 5.865 41.3457C6.185 41.0457 6.345 40.6607 6.345 40.1907C6.345 39.8007 6.26 39.4857 6.09 39.2457C5.92 39.0057 5.7 38.8207 5.43 38.6907C5.16 38.5607 4.875 38.4707 4.575 38.4207C4.275 38.3707 3.99 38.3457 3.72 38.3457C3.56 38.3457 3.405 38.3507 3.255 38.3607C3.115 38.3707 3.005 38.3857 2.925 38.4057C2.705 38.4457 2.575 38.5157 2.535 38.6157C2.495 38.7157 2.475 38.7957 2.475 38.8557V42.1857ZM12.2747 48.4107C11.6347 48.4107 11.0797 48.2657 10.6097 47.9757C10.1497 47.6757 9.79469 47.2607 9.54469 46.7307C9.29469 46.2007 9.16469 45.5957 9.15469 44.9157C9.15469 44.1557 9.29969 43.4907 9.58969 42.9207C9.88969 42.3407 10.2997 41.8857 10.8197 41.5557C11.3497 41.2257 11.9497 41.0607 12.6197 41.0607C13.2597 41.0607 13.8097 41.2057 14.2697 41.4957C14.7397 41.7857 15.1047 42.1907 15.3647 42.7107C15.6247 43.2307 15.7547 43.8357 15.7547 44.5257C15.7647 45.2857 15.6197 45.9607 15.3197 46.5507C15.0197 47.1307 14.6047 47.5857 14.0747 47.9157C13.5547 48.2457 12.9547 48.4107 12.2747 48.4107ZM12.5747 47.6757C13.3047 47.6757 13.8647 47.4257 14.2547 46.9257C14.6447 46.4257 14.8397 45.7407 14.8397 44.8707C14.8397 43.9307 14.6097 43.1857 14.1497 42.6357C13.6997 42.0757 13.0947 41.7957 12.3347 41.7957C11.6147 41.7957 11.0547 42.0507 10.6547 42.5607C10.2647 43.0607 10.0697 43.7407 10.0697 44.6007C10.0697 45.5407 10.2947 46.2907 10.7447 46.8507C11.1947 47.4007 11.8047 47.6757 12.5747 47.6757ZM20.2141 48.4107C19.5741 48.4107 19.0191 48.2657 18.5491 47.9757C18.0891 47.6757 17.7341 47.2607 17.4841 46.7307C17.2341 46.2007 17.1041 45.5957 17.0941 44.9157C17.0941 44.1557 17.2391 43.4907 17.5291 42.9207C17.8291 42.3407 18.2391 41.8857 18.7591 41.5557C19.2891 41.2257 19.8891 41.0607 20.5591 41.0607C21.1991 41.0607 21.7491 41.2057 22.2091 41.4957C22.6791 41.7857 23.0441 42.1907 23.3041 42.7107C23.5641 43.2307 23.6941 43.8357 23.6941 44.5257C23.7041 45.2857 23.5591 45.9607 23.2591 46.5507C22.9591 47.1307 22.5441 47.5857 22.0141 47.9157C21.4941 48.2457 20.8941 48.4107 20.2141 48.4107ZM20.5141 47.6757C21.2441 47.6757 21.8041 47.4257 22.1941 46.9257C22.5841 46.4257 22.7791 45.7407 22.7791 44.8707C22.7791 43.9307 22.5491 43.1857 22.0891 42.6357C21.6391 42.0757 21.0341 41.7957 20.2741 41.7957C19.5541 41.7957 18.9941 42.0507 18.5941 42.5607C18.2041 43.0607 18.0091 43.7407 18.0091 44.6007C18.0091 45.5407 18.2341 46.2907 18.6841 46.8507C19.1341 47.4007 19.7441 47.6757 20.5141 47.6757ZM31.0671 48.3207C30.8271 48.3207 30.6071 48.2607 30.4071 48.1407C30.2171 48.0207 30.0171 47.8457 29.8071 47.6157L27.5121 44.7357L26.7021 45.5157C26.7021 45.5757 26.7021 45.6357 26.7021 45.6957C26.7021 45.9857 26.7021 46.2557 26.7021 46.5057C26.7021 46.7457 26.7071 46.9557 26.7171 47.1357C26.7271 47.2957 26.7571 47.4057 26.8071 47.4657C26.8571 47.5157 26.9421 47.5507 27.0621 47.5707C27.1321 47.5807 27.2371 47.5857 27.3771 47.5857C27.5171 47.5857 27.6371 47.5857 27.7371 47.5857C27.7371 47.6357 27.7321 47.7007 27.7221 47.7807C27.7221 47.8607 27.7121 47.9257 27.6921 47.9757C27.6621 48.0757 27.6271 48.1357 27.5871 48.1557C27.5471 48.1757 27.5171 48.1857 27.4971 48.1857H24.9921C24.8921 48.1857 24.8421 48.1357 24.8421 48.0357C24.8421 47.9957 24.8471 47.9407 24.8571 47.8707C24.8671 47.7907 24.8921 47.7207 24.9321 47.6607C25.2321 47.6307 25.4521 47.5407 25.5921 47.3907C25.7321 47.2407 25.8071 47.0107 25.8171 46.7007C25.8371 46.4307 25.8521 46.0607 25.8621 45.5907C25.8721 45.1207 25.8821 44.6007 25.8921 44.0307C25.9121 43.4607 25.9221 42.8807 25.9221 42.2907C25.9321 41.7007 25.9371 41.1507 25.9371 40.6407C25.9371 40.2007 25.9321 39.7957 25.9221 39.4257C25.9221 39.0457 25.9121 38.7907 25.8921 38.6607C25.8721 38.4807 25.8321 38.3607 25.7721 38.3007C25.7121 38.2307 25.6021 38.1857 25.4421 38.1657L24.8421 38.1057C24.7721 38.1057 24.7371 38.0657 24.7371 37.9857C24.7371 37.9257 24.7521 37.8557 24.7821 37.7757C24.8121 37.6957 24.8471 37.6307 24.8871 37.5807C25.0771 37.5207 25.2921 37.4757 25.5321 37.4457C25.7821 37.4057 26.0021 37.3857 26.1921 37.3857C26.4221 37.3857 26.5971 37.4207 26.7171 37.4907C26.8471 37.5507 26.9021 37.7107 26.8821 37.9707C26.8621 38.2407 26.8421 38.6307 26.8221 39.1407C26.8121 39.6407 26.7971 40.2057 26.7771 40.8357C26.7571 41.4557 26.7421 42.1007 26.7321 42.7707C26.7221 43.4307 26.7121 44.0557 26.7021 44.6457L28.9971 42.4257C29.2271 42.1957 29.3421 42.0357 29.3421 41.9457C29.3421 41.8557 29.1571 41.8107 28.7871 41.8107C28.7871 41.7607 28.7921 41.7007 28.8021 41.6307C28.8221 41.5607 28.8471 41.4957 28.8771 41.4357C28.9171 41.3557 28.9521 41.3107 28.9821 41.3007C29.0221 41.2907 29.0621 41.2857 29.1021 41.2857H31.2621C31.3121 41.2857 31.3471 41.2957 31.3671 41.3157C31.3971 41.3257 31.4121 41.3657 31.4121 41.4357C31.4121 41.5657 31.3821 41.6907 31.3221 41.8107C31.1021 41.8307 30.9121 41.8707 30.7521 41.9307C30.6021 41.9807 30.4321 42.0757 30.2421 42.2157C30.0521 42.3557 29.7921 42.5707 29.4621 42.8607L28.0671 44.2107C28.6371 44.9507 29.1121 45.5507 29.4921 46.0107C29.8821 46.4607 30.2071 46.8057 30.4671 47.0457C30.7371 47.2857 30.9771 47.4507 31.1871 47.5407C31.4071 47.6207 31.6321 47.6607 31.8621 47.6607C31.8621 47.7507 31.8571 47.8407 31.8471 47.9307C31.8371 48.0107 31.8171 48.0957 31.7871 48.1857C31.5171 48.2757 31.2771 48.3207 31.0671 48.3207ZM32.5318 48.0357C32.5318 47.9957 32.5368 47.9407 32.5468 47.8707C32.5568 47.7907 32.5818 47.7207 32.6218 47.6607C32.9518 47.6207 33.1918 47.5307 33.3418 47.3907C33.5018 47.2407 33.5818 46.9757 33.5818 46.5957V39.2157C33.5818 38.9557 33.5618 38.7657 33.5218 38.6457C33.4918 38.5257 33.4068 38.4507 33.2668 38.4207C33.1368 38.3807 32.9168 38.3607 32.6068 38.3607C32.6068 38.3107 32.6118 38.2457 32.6218 38.1657C32.6318 38.0857 32.6418 38.0207 32.6518 37.9707C32.6818 37.8607 32.7168 37.8007 32.7568 37.7907C32.8068 37.7707 32.8368 37.7607 32.8468 37.7607H34.0168C34.2568 37.7607 34.4368 37.8557 34.5568 38.0457L40.2418 46.3557C40.2618 46.3857 40.2818 46.3957 40.3018 46.3857C40.3218 46.3757 40.3318 46.3557 40.3318 46.3257V39.2157C40.3318 38.9557 40.3018 38.7657 40.2418 38.6457C40.1818 38.5257 40.0718 38.4507 39.9118 38.4207C39.7518 38.3807 39.5168 38.3607 39.2068 38.3607C39.2068 38.3107 39.2118 38.2457 39.2218 38.1657C39.2318 38.0857 39.2418 38.0207 39.2518 37.9707C39.2818 37.8607 39.3168 37.8007 39.3568 37.7907C39.4068 37.7707 39.4368 37.7607 39.4468 37.7607H41.9068C42.0068 37.7607 42.0568 37.8107 42.0568 37.9107C42.0568 37.9507 42.0468 38.0107 42.0268 38.0907C42.0068 38.1607 41.9768 38.2257 41.9368 38.2857C41.5968 38.3357 41.3568 38.4257 41.2168 38.5557C41.0768 38.6757 41.0068 38.9107 41.0068 39.2607V48.1857H40.5718C40.4218 48.1857 40.3018 48.1207 40.2118 47.9907L34.3618 39.4557C34.3418 39.4257 34.3218 39.4157 34.3018 39.4257C34.2818 39.4357 34.2718 39.4557 34.2718 39.4857L34.2568 46.5957C34.2568 46.9757 34.2918 47.2307 34.3618 47.3607C34.4318 47.4807 34.5618 47.5507 34.7518 47.5707C34.8618 47.5807 34.9818 47.5857 35.1118 47.5857C35.2418 47.5857 35.3568 47.5857 35.4568 47.5857C35.4568 47.6357 35.4518 47.7007 35.4418 47.7807C35.4418 47.8607 35.4318 47.9257 35.4118 47.9757C35.3818 48.0757 35.3468 48.1357 35.3068 48.1557C35.2668 48.1757 35.2368 48.1857 35.2168 48.1857H32.6818C32.5818 48.1857 32.5318 48.1357 32.5318 48.0357ZM44.083 44.6757C44.133 45.6657 44.408 46.4107 44.908 46.9107C45.408 47.4007 46.028 47.6457 46.768 47.6457C47.478 47.6457 48.168 47.4157 48.838 46.9557C48.858 46.9757 48.893 47.0407 48.943 47.1507C49.003 47.2607 49.033 47.3557 49.033 47.4357C49.033 47.5057 49.013 47.5607 48.973 47.6007C48.933 47.6407 48.898 47.6707 48.868 47.6907C48.538 47.9307 48.163 48.1107 47.743 48.2307C47.333 48.3507 46.913 48.4107 46.483 48.4107C45.473 48.4107 44.673 48.1007 44.083 47.4807C43.503 46.8507 43.203 46.0007 43.183 44.9307C43.173 44.1207 43.313 43.4257 43.603 42.8457C43.903 42.2657 44.303 41.8207 44.803 41.5107C45.303 41.2007 45.863 41.0507 46.483 41.0607C47.093 41.0607 47.583 41.1907 47.953 41.4507C48.323 41.7107 48.593 42.0407 48.763 42.4407C48.933 42.8407 49.023 43.2707 49.033 43.7307C49.043 44.0007 49.003 44.1907 48.913 44.3007C48.823 44.4107 48.663 44.4757 48.433 44.4957L44.083 44.6757ZM46.303 41.7207C45.693 41.7207 45.188 41.9307 44.788 42.3507C44.398 42.7707 44.168 43.3207 44.098 44.0007L48.118 43.7757C48.168 43.1157 48.033 42.6107 47.713 42.2607C47.393 41.9007 46.923 41.7207 46.303 41.7207ZM52.8221 48.4107C52.3321 48.4107 51.8971 48.3457 51.5171 48.2157C51.1471 48.0757 50.8471 47.8957 50.6171 47.6757C50.4971 47.5657 50.3871 47.4307 50.2871 47.2707C50.1971 47.1107 50.1521 46.9907 50.1521 46.9107C50.1521 46.8107 50.2321 46.6957 50.3921 46.5657C50.5621 46.4357 50.6971 46.3457 50.7971 46.2957C50.9571 46.7357 51.2321 47.0957 51.6221 47.3757C52.0221 47.6457 52.4871 47.7807 53.0171 47.7807C53.4571 47.7807 53.8321 47.6857 54.1421 47.4957C54.4521 47.2957 54.6071 46.9857 54.6071 46.5657C54.6071 46.2157 54.4971 45.9357 54.2771 45.7257C54.0671 45.5157 53.8021 45.3457 53.4821 45.2157C53.1621 45.0857 52.8371 44.9707 52.5071 44.8707C52.2171 44.7807 51.9171 44.6657 51.6071 44.5257C51.3071 44.3757 51.0521 44.1757 50.8421 43.9257C50.6421 43.6757 50.5421 43.3607 50.5421 42.9807C50.5421 42.6107 50.6471 42.2807 50.8571 41.9907C51.0771 41.7007 51.3771 41.4757 51.7571 41.3157C52.1371 41.1457 52.5721 41.0607 53.0621 41.0607C53.5921 41.0607 54.0721 41.1657 54.5021 41.3757C54.9321 41.5857 55.1821 41.8707 55.2521 42.2307C55.2521 42.3207 55.2021 42.4107 55.1021 42.5007C55.0121 42.5907 54.9121 42.6657 54.8021 42.7257C54.6921 42.7857 54.6071 42.8207 54.5471 42.8307C54.4671 42.5307 54.2721 42.2657 53.9621 42.0357C53.6521 41.7957 53.2571 41.6757 52.7771 41.6757C52.3671 41.6757 52.0271 41.7657 51.7571 41.9457C51.4971 42.1257 51.3671 42.4057 51.3671 42.7857C51.3671 43.1557 51.5021 43.4257 51.7721 43.5957C52.0521 43.7557 52.4571 43.9257 52.9871 44.1057C53.3771 44.2357 53.7621 44.3857 54.1421 44.5557C54.5221 44.7257 54.8371 44.9457 55.0871 45.2157C55.3471 45.4857 55.4771 45.8407 55.4771 46.2807C55.4771 46.6707 55.3671 47.0257 55.1471 47.3457C54.9271 47.6657 54.6171 47.9257 54.2171 48.1257C53.8271 48.3157 53.3621 48.4107 52.8221 48.4107ZM59.256 48.4107C58.716 48.4107 58.281 48.2357 57.951 47.8857C57.621 47.5257 57.461 46.9957 57.471 46.2957L57.501 42.0207H56.376C56.276 42.0207 56.226 41.9707 56.226 41.8707C56.226 41.8307 56.246 41.7407 56.286 41.6007C56.336 41.4507 56.381 41.3457 56.421 41.2857H57.501V40.0257C57.501 39.8857 57.561 39.7957 57.681 39.7557C57.781 39.7157 57.916 39.6757 58.086 39.6357C58.266 39.5957 58.421 39.5707 58.551 39.5607C58.531 39.6807 58.506 39.8957 58.476 40.2057C58.456 40.5057 58.436 40.8657 58.416 41.2857H59.646C60.126 41.2857 60.526 41.2607 60.846 41.2107C60.826 41.3507 60.801 41.4857 60.771 41.6157C60.751 41.7457 60.731 41.8257 60.711 41.8557C60.661 41.9657 60.546 42.0207 60.366 42.0207H58.386C58.376 42.4507 58.366 42.9057 58.356 43.3857C58.346 43.8557 58.341 44.3257 58.341 44.7957C58.341 45.0357 58.341 45.2707 58.341 45.5007C58.341 45.7307 58.346 45.9557 58.356 46.1757C58.376 46.6657 58.501 47.0207 58.731 47.2407C58.961 47.4607 59.271 47.5707 59.661 47.5707C60.111 47.5707 60.591 47.4157 61.101 47.1057C61.131 47.1357 61.161 47.2107 61.191 47.3307C61.231 47.4407 61.251 47.5307 61.251 47.6007C61.251 47.7007 61.191 47.7857 61.071 47.8557C60.821 48.0157 60.536 48.1507 60.216 48.2607C59.896 48.3607 59.576 48.4107 59.256 48.4107Z" fill="black"/>
</svg>
