<svg width="25" height="23" viewBox="0 0 25 23" fill="none" xmlns="http://www.w3.org/2000/svg">
<path d="M22.7038 2.30322C21.3773 0.980392 19.6187 0.176126 17.7478 0.0366866C15.8768 -0.102753 14.0178 0.431894 12.5088 1.5434C10.9192 0.364601 8.94057 -0.169922 6.97145 0.0474689C5.00233 0.26486 3.18897 1.21802 1.89652 2.715C0.604078 4.21198 -0.071444 6.14159 0.0059913 8.11525C0.0834266 10.0889 0.908067 11.96 2.31385 13.3518L11.6218 22.6316C11.7379 22.7483 11.8761 22.841 12.0283 22.9042C12.1806 22.9674 12.3439 23 12.5088 23C12.6737 23 12.8371 22.9674 12.9893 22.9042C13.1416 22.841 13.2797 22.7483 13.3959 22.6316L22.7038 13.3518C23.4317 12.6265 24.0092 11.7653 24.4032 10.8174C24.7972 9.86953 25 8.85354 25 7.82749C25 6.80145 24.7972 5.78546 24.4032 4.83758C24.0092 3.8897 23.4317 3.02851 22.7038 2.30322ZM20.9422 11.5955L12.5088 19.9909L4.07548 11.5955C3.33232 10.8515 2.82607 9.90523 2.62024 8.87547C2.41441 7.84572 2.51816 6.7783 2.91849 5.80711C3.31882 4.83592 3.99789 4.00421 4.87052 3.41632C5.74315 2.82843 6.77048 2.51054 7.82363 2.50252C9.23058 2.50595 10.5786 3.06595 11.5718 4.05953C11.6879 4.17628 11.8261 4.26894 11.9784 4.33218C12.1306 4.39542 12.2939 4.42798 12.4588 4.42798C12.6238 4.42798 12.7871 4.39542 12.9393 4.33218C13.0916 4.26894 13.2298 4.17628 13.3459 4.05953C14.3683 3.17624 15.6891 2.7132 17.041 2.76413C18.3929 2.81505 19.6749 3.37612 20.6275 4.3338C21.5802 5.29147 22.1323 6.57421 22.1721 7.9224C22.212 9.27058 21.7366 10.5835 20.8422 11.5955H20.9422Z" fill="black"/>
</svg>
