<svg width="23" height="21" viewBox="0 0 23 21" fill="none" xmlns="http://www.w3.org/2000/svg">
<path d="M0.9375 0C0.417969 0 0 0.417969 0 0.9375C0 1.45703 0.417969 1.875 0.9375 1.875H2.70703C2.85938 1.875 2.98828 1.98438 3.01563 2.13281L5.05078 13.3164C5.29297 14.6523 6.45703 15.625 7.81641 15.625H17.8125C18.332 15.625 18.75 15.207 18.75 14.6875C18.75 14.168 18.332 13.75 17.8125 13.75H7.81641C7.36328 13.75 6.97656 13.4258 6.89453 12.9805L6.69531 11.875H18.5547C19.7578 11.875 20.7891 11.0195 21.0117 9.83594L22.2227 3.35547C22.3672 2.58594 21.7773 1.875 20.9922 1.875H4.87109L4.85547 1.79688C4.66797 0.757812 3.76172 0 2.70313 0H0.9375ZM8.125 20.625C9.16016 20.625 10 19.7852 10 18.75C10 17.7148 9.16016 16.875 8.125 16.875C7.08984 16.875 6.25 17.7148 6.25 18.75C6.25 19.7852 7.08984 20.625 8.125 20.625ZM16.875 20.625C17.9102 20.625 18.75 19.7852 18.75 18.75C18.75 17.7148 17.9102 16.875 16.875 16.875C15.8398 16.875 15 17.7148 15 18.75C15 19.7852 15.8398 20.625 16.875 20.625Z" fill="black"/>
<path d="M0.9375 0C0.417969 0 0 0.417969 0 0.9375C0 1.45703 0.417969 1.875 0.9375 1.875H2.70703C2.85938 1.875 2.98828 1.98438 3.01563 2.13281L5.05078 13.3164C5.29297 14.6523 6.45703 15.625 7.81641 15.625H17.8125C18.332 15.625 18.75 15.207 18.75 14.6875C18.75 14.168 18.332 13.75 17.8125 13.75H7.81641C7.36328 13.75 6.97656 13.4258 6.89453 12.9805L6.69531 11.875H18.5547C19.7578 11.875 20.7891 11.0195 21.0117 9.83594L22.2227 3.35547C22.3672 2.58594 21.7773 1.875 20.9922 1.875H4.87109L4.85547 1.79688C4.66797 0.757812 3.76172 0 2.70313 0H0.9375ZM8.125 20.625C9.16016 20.625 10 19.7852 10 18.75C10 17.7148 9.16016 16.875 8.125 16.875C7.08984 16.875 6.25 17.7148 6.25 18.75C6.25 19.7852 7.08984 20.625 8.125 20.625ZM16.875 20.625C17.9102 20.625 18.75 19.7852 18.75 18.75C18.75 17.7148 17.9102 16.875 16.875 16.875C15.8398 16.875 15 17.7148 15 18.75C15 19.7852 15.8398 20.625 16.875 20.625Z" fill="black" fill-opacity="0.2"/>
</svg>
